<svg width="117" height="85" viewBox="0 0 117 85" fill="none" xmlns="http://www.w3.org/2000/svg">
<path d="M1.5 30C1.5 14.2599 14.2599 1.5 30 1.5H87C102.74 1.5 115.5 14.2599 115.5 30V55C115.5 70.7401 102.74 83.5 87 83.5H30C14.2599 83.5 1.5 70.7401 1.5 55V30Z" fill="url(#paint0_linear_195_712)" stroke="white" stroke-width="3"/>
<mask id="path-2-outside-1_195_712" maskUnits="userSpaceOnUse" x="20" y="26" width="77" height="41" fill="black">
<rect fill="white" x="20" y="26" width="77" height="41"/>
<path d="M35.0335 39.808C37.1695 40.48 39.1375 41.392 40.9375 42.544C42.7375 43.672 43.6375 44.884 43.6375 46.18C43.6375 47.404 42.9775 48.58 41.6575 49.708C40.3375 50.812 38.7415 51.712 36.8695 52.408C34.9975 53.08 33.3415 53.416 31.9015 53.416H30.3175H29.6335H21.1015V53.308C23.1655 52.156 24.4375 51.34 24.9175 50.86C25.2295 50.548 25.4335 50.08 25.5295 49.456C26.0335 46.84 26.2855 44.476 26.2855 42.364C26.2855 40.804 26.2255 38.92 26.1055 36.712C26.0095 34.48 25.8175 32.596 25.5295 31.06C25.4335 30.436 25.2295 29.968 24.9175 29.656C24.4375 29.176 23.1655 28.36 21.1015 27.208V27.1H31.5775C33.0415 27.1 34.4215 27.424 35.7175 28.072C37.0375 28.696 38.0935 29.584 38.8855 30.736C39.7015 31.864 40.1095 33.136 40.1095 34.552C40.1095 35.344 39.5455 36.28 38.4175 37.36C37.3135 38.44 36.1855 39.256 35.0335 39.808ZM29.8135 29.26C29.6215 29.452 29.4775 29.68 29.3815 29.944C29.3095 30.208 29.2495 30.58 29.2015 31.06L28.9135 39.304C28.9855 39.76 29.5015 39.988 30.4615 39.988C30.7735 39.988 31.2655 39.964 31.9375 39.916C32.2255 39.916 32.4415 39.904 32.5855 39.88C33.1615 39.712 33.7855 39.328 34.4575 38.728C35.1295 38.128 35.6815 37.456 36.1135 36.712C36.5695 35.944 36.7975 35.272 36.7975 34.696C36.7975 33.424 36.5215 32.296 35.9695 31.312C35.4415 30.328 34.7695 29.572 33.9535 29.044C33.1615 28.516 32.3695 28.252 31.5775 28.252C31.2895 28.252 31.0255 28.324 30.7855 28.468C30.5455 28.612 30.2215 28.876 29.8135 29.26ZM31.9015 52.048C33.1015 52.048 34.2895 51.736 35.4655 51.112C36.6415 50.464 37.6135 49.672 38.3815 48.736C39.1495 47.8 39.5335 46.948 39.5335 46.18C39.5335 44.788 38.1175 43.36 35.2855 41.896C34.8055 41.656 34.4215 41.488 34.1335 41.392C33.8455 41.272 33.4975 41.212 33.0895 41.212C32.1295 41.212 31.1695 41.38 30.2095 41.716C29.2735 42.052 28.8055 42.508 28.8055 43.084V43.048C28.8055 43.984 28.8655 45.04 28.9855 46.216C29.1295 47.392 29.3215 48.472 29.5615 49.456C29.7535 50.272 29.9815 50.86 30.2455 51.22C30.4615 51.556 30.6895 51.784 30.9295 51.904C31.1935 52 31.5175 52.048 31.9015 52.048ZM66.1932 52.048C66.9132 52.432 67.8612 52.78 69.0372 53.092V53.2L60.6492 55C60.7932 54.448 60.9492 53.716 61.1172 52.804H61.0812C60.9852 52.804 60.7212 52.924 60.2892 53.164C59.8092 53.428 59.5212 53.596 59.4252 53.668C58.3932 54.244 57.6732 54.616 57.2652 54.784C56.8812 54.952 56.4492 55.036 55.9692 55.036C55.2252 55.036 54.4212 54.88 53.5572 54.568C52.6932 54.256 51.9612 53.872 51.3612 53.416C50.7852 52.936 50.4972 52.492 50.4972 52.084V50.896C50.4972 44.104 50.2452 40.048 49.7412 38.728C49.5972 38.368 49.2252 38.032 48.6252 37.72C47.9052 37.336 46.9572 36.988 45.7812 36.676V36.568L54.5292 34.768C54.3132 35.704 54.0612 37.024 53.7732 38.728C53.5332 40.264 53.3412 42.46 53.1972 45.316C53.0772 48.148 53.0172 50.224 53.0172 51.544C53.0172 51.904 53.4252 52.252 54.2412 52.588C55.0572 52.9 55.7772 53.056 56.4012 53.056C56.6892 53.056 57.1812 52.936 57.8772 52.696C58.5732 52.456 59.2572 52.12 59.9292 51.688C60.8172 51.112 61.3572 50.56 61.5492 50.032C61.6452 49.288 61.7292 48.604 61.8012 47.98C61.8732 47.332 61.9092 46.708 61.9092 46.108C61.9092 44.284 61.6572 42.676 61.1532 41.284C61.0092 40.924 60.6372 40.588 60.0372 40.276C59.3172 39.892 58.3692 39.544 57.1932 39.232V39.124L65.5812 37.324C65.2452 38.692 64.9932 40.012 64.8252 41.284C64.5612 43.18 64.4292 44.788 64.4292 46.108C64.4292 48.196 64.6452 49.84 65.0772 51.04C65.2212 51.4 65.5932 51.736 66.1932 52.048ZM84.4542 37H95.9022V37.108C94.9902 37.54 94.1022 37.984 93.2382 38.44C92.3742 38.872 91.7382 39.244 91.3302 39.556C91.0662 39.748 90.8022 40 90.5382 40.312C90.2742 40.6 90.0942 40.852 89.9982 41.068C89.2302 42.532 88.6662 43.732 88.3062 44.668C87.9702 45.58 87.6102 46.624 87.2262 47.8L86.9742 48.556C85.4142 53.02 84.4782 56.224 84.1662 58.168C84.0462 58.744 83.5182 59.596 82.5822 60.724C81.6702 61.852 80.6622 62.86 79.5582 63.748C78.4782 64.636 77.6262 65.08 77.0022 65.08C76.2822 65.08 74.8782 64.9 72.7902 64.54C70.7262 64.204 69.7302 63.94 69.8022 63.748C71.0742 60.46 71.8782 58.276 72.2142 57.196H72.6462C72.8142 58.036 73.1142 59.128 73.5462 60.472C74.0022 61.816 74.2902 62.548 74.4102 62.668C74.6022 62.86 75.0222 63.136 75.6702 63.496C76.3422 63.856 76.8342 64.036 77.1462 64.036C77.5302 64.036 77.9622 63.628 78.4422 62.812C78.9222 61.996 79.3302 61.084 79.6662 60.076C80.0262 59.092 80.1822 58.456 80.1342 58.168C79.6542 55.384 78.9702 52.588 78.0822 49.78C77.3622 47.668 76.3902 45.388 75.1662 42.94C74.9022 42.412 74.5062 41.944 73.9782 41.536C73.5702 41.224 72.9342 40.852 72.0702 40.42C71.2062 39.964 70.3182 39.52 69.4062 39.088V38.98H80.8542V39.088C80.3262 39.64 79.9542 40.072 79.7382 40.384C79.5462 40.696 79.3782 41.08 79.2342 41.536C79.1142 41.848 79.0542 42.316 79.0542 42.94C79.1502 44.308 79.3062 45.436 79.5222 46.324C79.7382 47.212 79.9542 47.956 80.1702 48.556C80.3862 49.156 80.5302 49.564 80.6022 49.78C81.2502 51.748 81.9702 53.608 82.7622 55.36C83.2902 54.04 83.8062 52.66 84.3102 51.22C84.8142 49.756 85.1862 48.616 85.4262 47.8C85.7142 46.864 85.9662 45.7 86.1822 44.308C86.3982 42.916 86.4702 41.8 86.3982 40.96C86.3502 40.48 86.2422 40.012 86.0742 39.556C85.9302 39.1 85.7502 38.716 85.5342 38.404C85.3422 38.092 84.9822 37.66 84.4542 37.108V37Z"/>
</mask>
<path d="M35.0335 39.808C37.1695 40.48 39.1375 41.392 40.9375 42.544C42.7375 43.672 43.6375 44.884 43.6375 46.18C43.6375 47.404 42.9775 48.58 41.6575 49.708C40.3375 50.812 38.7415 51.712 36.8695 52.408C34.9975 53.08 33.3415 53.416 31.9015 53.416H30.3175H29.6335H21.1015V53.308C23.1655 52.156 24.4375 51.34 24.9175 50.86C25.2295 50.548 25.4335 50.08 25.5295 49.456C26.0335 46.84 26.2855 44.476 26.2855 42.364C26.2855 40.804 26.2255 38.92 26.1055 36.712C26.0095 34.48 25.8175 32.596 25.5295 31.06C25.4335 30.436 25.2295 29.968 24.9175 29.656C24.4375 29.176 23.1655 28.36 21.1015 27.208V27.1H31.5775C33.0415 27.1 34.4215 27.424 35.7175 28.072C37.0375 28.696 38.0935 29.584 38.8855 30.736C39.7015 31.864 40.1095 33.136 40.1095 34.552C40.1095 35.344 39.5455 36.28 38.4175 37.36C37.3135 38.44 36.1855 39.256 35.0335 39.808ZM29.8135 29.26C29.6215 29.452 29.4775 29.68 29.3815 29.944C29.3095 30.208 29.2495 30.58 29.2015 31.06L28.9135 39.304C28.9855 39.76 29.5015 39.988 30.4615 39.988C30.7735 39.988 31.2655 39.964 31.9375 39.916C32.2255 39.916 32.4415 39.904 32.5855 39.88C33.1615 39.712 33.7855 39.328 34.4575 38.728C35.1295 38.128 35.6815 37.456 36.1135 36.712C36.5695 35.944 36.7975 35.272 36.7975 34.696C36.7975 33.424 36.5215 32.296 35.9695 31.312C35.4415 30.328 34.7695 29.572 33.9535 29.044C33.1615 28.516 32.3695 28.252 31.5775 28.252C31.2895 28.252 31.0255 28.324 30.7855 28.468C30.5455 28.612 30.2215 28.876 29.8135 29.26ZM31.9015 52.048C33.1015 52.048 34.2895 51.736 35.4655 51.112C36.6415 50.464 37.6135 49.672 38.3815 48.736C39.1495 47.8 39.5335 46.948 39.5335 46.18C39.5335 44.788 38.1175 43.36 35.2855 41.896C34.8055 41.656 34.4215 41.488 34.1335 41.392C33.8455 41.272 33.4975 41.212 33.0895 41.212C32.1295 41.212 31.1695 41.38 30.2095 41.716C29.2735 42.052 28.8055 42.508 28.8055 43.084V43.048C28.8055 43.984 28.8655 45.04 28.9855 46.216C29.1295 47.392 29.3215 48.472 29.5615 49.456C29.7535 50.272 29.9815 50.86 30.2455 51.22C30.4615 51.556 30.6895 51.784 30.9295 51.904C31.1935 52 31.5175 52.048 31.9015 52.048ZM66.1932 52.048C66.9132 52.432 67.8612 52.78 69.0372 53.092V53.2L60.6492 55C60.7932 54.448 60.9492 53.716 61.1172 52.804H61.0812C60.9852 52.804 60.7212 52.924 60.2892 53.164C59.8092 53.428 59.5212 53.596 59.4252 53.668C58.3932 54.244 57.6732 54.616 57.2652 54.784C56.8812 54.952 56.4492 55.036 55.9692 55.036C55.2252 55.036 54.4212 54.88 53.5572 54.568C52.6932 54.256 51.9612 53.872 51.3612 53.416C50.7852 52.936 50.4972 52.492 50.4972 52.084V50.896C50.4972 44.104 50.2452 40.048 49.7412 38.728C49.5972 38.368 49.2252 38.032 48.6252 37.72C47.9052 37.336 46.9572 36.988 45.7812 36.676V36.568L54.5292 34.768C54.3132 35.704 54.0612 37.024 53.7732 38.728C53.5332 40.264 53.3412 42.46 53.1972 45.316C53.0772 48.148 53.0172 50.224 53.0172 51.544C53.0172 51.904 53.4252 52.252 54.2412 52.588C55.0572 52.9 55.7772 53.056 56.4012 53.056C56.6892 53.056 57.1812 52.936 57.8772 52.696C58.5732 52.456 59.2572 52.12 59.9292 51.688C60.8172 51.112 61.3572 50.56 61.5492 50.032C61.6452 49.288 61.7292 48.604 61.8012 47.98C61.8732 47.332 61.9092 46.708 61.9092 46.108C61.9092 44.284 61.6572 42.676 61.1532 41.284C61.0092 40.924 60.6372 40.588 60.0372 40.276C59.3172 39.892 58.3692 39.544 57.1932 39.232V39.124L65.5812 37.324C65.2452 38.692 64.9932 40.012 64.8252 41.284C64.5612 43.18 64.4292 44.788 64.4292 46.108C64.4292 48.196 64.6452 49.84 65.0772 51.04C65.2212 51.4 65.5932 51.736 66.1932 52.048ZM84.4542 37H95.9022V37.108C94.9902 37.54 94.1022 37.984 93.2382 38.44C92.3742 38.872 91.7382 39.244 91.3302 39.556C91.0662 39.748 90.8022 40 90.5382 40.312C90.2742 40.6 90.0942 40.852 89.9982 41.068C89.2302 42.532 88.6662 43.732 88.3062 44.668C87.9702 45.58 87.6102 46.624 87.2262 47.8L86.9742 48.556C85.4142 53.02 84.4782 56.224 84.1662 58.168C84.0462 58.744 83.5182 59.596 82.5822 60.724C81.6702 61.852 80.6622 62.86 79.5582 63.748C78.4782 64.636 77.6262 65.08 77.0022 65.08C76.2822 65.08 74.8782 64.9 72.7902 64.54C70.7262 64.204 69.7302 63.94 69.8022 63.748C71.0742 60.46 71.8782 58.276 72.2142 57.196H72.6462C72.8142 58.036 73.1142 59.128 73.5462 60.472C74.0022 61.816 74.2902 62.548 74.4102 62.668C74.6022 62.86 75.0222 63.136 75.6702 63.496C76.3422 63.856 76.8342 64.036 77.1462 64.036C77.5302 64.036 77.9622 63.628 78.4422 62.812C78.9222 61.996 79.3302 61.084 79.6662 60.076C80.0262 59.092 80.1822 58.456 80.1342 58.168C79.6542 55.384 78.9702 52.588 78.0822 49.78C77.3622 47.668 76.3902 45.388 75.1662 42.94C74.9022 42.412 74.5062 41.944 73.9782 41.536C73.5702 41.224 72.9342 40.852 72.0702 40.42C71.2062 39.964 70.3182 39.52 69.4062 39.088V38.98H80.8542V39.088C80.3262 39.64 79.9542 40.072 79.7382 40.384C79.5462 40.696 79.3782 41.08 79.2342 41.536C79.1142 41.848 79.0542 42.316 79.0542 42.94C79.1502 44.308 79.3062 45.436 79.5222 46.324C79.7382 47.212 79.9542 47.956 80.1702 48.556C80.3862 49.156 80.5302 49.564 80.6022 49.78C81.2502 51.748 81.9702 53.608 82.7622 55.36C83.2902 54.04 83.8062 52.66 84.3102 51.22C84.8142 49.756 85.1862 48.616 85.4262 47.8C85.7142 46.864 85.9662 45.7 86.1822 44.308C86.3982 42.916 86.4702 41.8 86.3982 40.96C86.3502 40.48 86.2422 40.012 86.0742 39.556C85.9302 39.1 85.7502 38.716 85.5342 38.404C85.3422 38.092 84.9822 37.66 84.4542 37.108V37Z" fill="white"/>
<path d="M35.0335 39.808L34.6014 38.9062L32.3158 40.0013L34.7334 40.7619L35.0335 39.808ZM40.9375 42.544L40.3984 43.3863L40.4065 43.3914L40.9375 42.544ZM41.6575 49.708L42.2991 50.4751L42.3071 50.4682L41.6575 49.708ZM36.8695 52.408L37.2074 53.3493L37.218 53.3453L36.8695 52.408ZM21.1015 53.416H20.1015V54.416H21.1015V53.416ZM21.1015 53.308L20.6141 52.4348L20.1015 52.7209V53.308H21.1015ZM24.9175 50.86L25.6246 51.5671L24.9175 50.86ZM25.5295 49.456L24.5475 49.2668L24.544 49.2853L24.5411 49.3039L25.5295 49.456ZM26.1055 36.712L25.1063 36.755L25.107 36.7663L26.1055 36.712ZM25.5295 31.06L24.5411 31.2121L24.5436 31.2282L24.5466 31.2443L25.5295 31.06ZM24.9175 29.656L25.6246 28.9489L24.9175 29.656ZM21.1015 27.208H20.1015V27.7951L20.6141 28.0812L21.1015 27.208ZM21.1015 27.1V26.1H20.1015V27.1H21.1015ZM35.7175 28.072L35.2703 28.9664L35.2801 28.9714L35.2901 28.9761L35.7175 28.072ZM38.8855 30.736L38.0614 31.3025L38.0682 31.3124L38.0753 31.3221L38.8855 30.736ZM38.4175 37.36L37.7259 36.6376L37.7182 36.6452L38.4175 37.36ZM29.8135 29.26L29.1281 28.5318L29.1171 28.5422L29.1064 28.5529L29.8135 29.26ZM29.3815 29.944L28.4417 29.6023L28.4276 29.6411L28.4167 29.6809L29.3815 29.944ZM29.2015 31.06L28.2064 30.9605L28.2032 30.9927L28.2021 31.0251L29.2015 31.06ZM28.9135 39.304L27.9141 39.2691L27.9107 39.3651L27.9257 39.46L28.9135 39.304ZM31.9375 39.916V38.916H31.9018L31.8662 38.9185L31.9375 39.916ZM32.5855 39.88L32.7499 40.8664L32.8085 40.8566L32.8655 40.84L32.5855 39.88ZM36.1135 36.712L35.2536 36.2014L35.2487 36.2099L36.1135 36.712ZM35.9695 31.312L35.0883 31.7848L35.0928 31.7931L35.0973 31.8012L35.9695 31.312ZM33.9535 29.044L33.3987 29.8761L33.4102 29.8836L33.9535 29.044ZM30.7855 28.468L30.271 27.6105L30.271 27.6105L30.7855 28.468ZM35.4655 51.112L35.9342 51.9953L35.9412 51.9916L35.9481 51.9878L35.4655 51.112ZM38.3815 48.736L39.1546 49.3703L38.3815 48.736ZM35.2855 41.896L35.7447 41.0076L35.7327 41.0016L35.2855 41.896ZM34.1335 41.392L33.7489 42.3151L33.7826 42.3291L33.8173 42.3407L34.1335 41.392ZM30.2095 41.716L29.8791 40.7721L29.8716 40.7748L30.2095 41.716ZM28.9855 46.216L27.9907 46.3175L27.9917 46.3275L27.9929 46.3375L28.9855 46.216ZM29.5615 49.456L30.5349 49.227L30.533 49.219L29.5615 49.456ZM30.2455 51.22L31.0867 50.6792L31.0701 50.6534L31.0519 50.6286L30.2455 51.22ZM30.9295 51.904L30.4823 52.7984L30.5337 52.8241L30.5877 52.8438L30.9295 51.904ZM34.7334 40.7619C36.7892 41.4087 38.6763 42.2841 40.3984 43.3863L41.4765 41.7017C39.5987 40.4999 37.5498 39.5513 35.3336 38.8541L34.7334 40.7619ZM40.4065 43.3914C42.1069 44.457 42.6375 45.4064 42.6375 46.18H44.6375C44.6375 44.3616 43.3681 42.887 41.4685 41.6966L40.4065 43.3914ZM42.6375 46.18C42.6375 47.0049 42.2019 47.9274 41.0078 48.9478L42.3071 50.4682C43.7531 49.2326 44.6375 47.8031 44.6375 46.18H42.6375ZM41.0159 48.9409C39.796 49.9612 38.3031 50.8081 36.521 51.4707L37.218 53.3453C39.1798 52.6159 40.879 51.6628 42.299 50.4751L41.0159 48.9409ZM36.5316 51.4668C34.7297 52.1137 33.1916 52.416 31.9015 52.416V54.416C33.4913 54.416 35.2653 54.0463 37.2074 53.3492L36.5316 51.4668ZM31.9015 52.416H30.3175V54.416H31.9015V52.416ZM30.3175 52.416H29.6335V54.416H30.3175V52.416ZM29.6335 52.416H21.1015V54.416H29.6335V52.416ZM22.1015 53.416V53.308H20.1015V53.416H22.1015ZM21.5889 54.1812C22.63 53.6001 23.4835 53.0971 24.1434 52.6737C24.7848 52.2623 25.3024 51.8893 25.6246 51.5671L24.2104 50.1529C24.0526 50.3107 23.6942 50.5857 23.0635 50.9903C22.4515 51.3829 21.637 51.8639 20.6141 52.4348L21.5889 54.1812ZM25.6246 51.5671C26.1394 51.0523 26.403 50.3548 26.5179 49.6081L24.5411 49.3039C24.464 49.8052 24.3196 50.0437 24.2104 50.1529L25.6246 51.5671ZM26.5114 49.6452C27.0245 46.9822 27.2855 44.5534 27.2855 42.364H25.2855C25.2855 44.3986 25.0425 46.6978 24.5475 49.2668L26.5114 49.6452ZM27.2855 42.364C27.2855 40.7802 27.2246 38.877 27.104 36.6577L25.107 36.7663C25.2263 38.963 25.2855 40.8278 25.2855 42.364H27.2855ZM27.1046 36.669C27.0073 34.4079 26.8119 32.4735 26.5124 30.8757L24.5466 31.2443C24.823 32.7185 25.0117 34.5521 25.1064 36.755L27.1046 36.669ZM26.5179 30.9079C26.403 30.1612 26.1394 29.4637 25.6246 28.9489L24.2104 30.3631C24.3196 30.4723 24.464 30.7108 24.5411 31.2121L26.5179 30.9079ZM25.6246 28.9489C25.3024 28.6267 24.7848 28.2537 24.1434 27.8423C23.4835 27.4189 22.63 26.9159 21.5889 26.3348L20.6141 28.0812C21.637 28.6521 22.4515 29.1331 23.0635 29.5257C23.6942 29.9303 24.0526 30.2053 24.2104 30.3631L25.6246 28.9489ZM22.1015 27.208V27.1H20.1015V27.208H22.1015ZM21.1015 28.1H31.5775V26.1H21.1015V28.1ZM31.5775 28.1C32.8879 28.1 34.1146 28.3886 35.2703 28.9664L36.1647 27.1776C34.7284 26.4594 33.1951 26.1 31.5775 26.1V28.1ZM35.2901 28.9761C36.4578 29.5281 37.3741 30.3027 38.0614 31.3025L39.7095 30.1695C38.8129 28.8653 37.6172 27.8639 36.1449 27.1679L35.2901 28.9761ZM38.0753 31.3221C38.7657 32.2765 39.1095 33.3426 39.1095 34.552H41.1095C41.1095 32.9294 40.6373 31.4515 39.6957 30.1499L38.0753 31.3221ZM39.1095 34.552C39.1095 34.9034 38.8253 35.5851 37.7259 36.6377L39.1091 38.0823C40.2657 36.9749 41.1095 35.7846 41.1095 34.552H39.1095ZM37.7182 36.6452C36.6766 37.6641 35.6365 38.4102 34.6014 38.9062L35.4656 40.7098C36.7344 40.1018 37.9504 39.2159 39.1168 38.0748L37.7182 36.6452ZM29.1064 28.5529C28.8074 28.8518 28.5859 29.2058 28.4417 29.6023L30.3213 30.2857C30.3691 30.1542 30.4355 30.0522 30.5206 29.9671L29.1064 28.5529ZM28.4167 29.6809C28.3231 30.0241 28.2565 30.4601 28.2064 30.9605L30.1965 31.1595C30.2425 30.6999 30.2959 30.3919 30.3462 30.2071L28.4167 29.6809ZM28.2021 31.0251L27.9141 39.2691L29.9129 39.3389L30.2009 31.0949L28.2021 31.0251ZM27.9257 39.46C28.027 40.1011 28.4608 40.5154 28.9503 40.7317C29.395 40.9282 29.9266 40.988 30.4615 40.988V38.988C30.259 38.988 30.0995 38.9758 29.9774 38.957C29.8534 38.9378 29.7863 38.9145 29.7586 38.9023C29.7325 38.8908 29.7643 38.8993 29.8091 38.9514C29.8596 39.0101 29.891 39.0832 29.9012 39.148L27.9257 39.46ZM30.4615 40.988C30.8115 40.988 31.3336 40.9617 32.0087 40.9135L31.8662 38.9185C31.1973 38.9663 30.7355 38.988 30.4615 38.988V40.988ZM31.9375 40.916C32.2384 40.916 32.5217 40.9044 32.7499 40.8664L32.4211 38.8936C32.3613 38.9036 32.2126 38.916 31.9375 38.916V40.916ZM32.8655 40.84C33.638 40.6147 34.3912 40.1278 35.1235 39.4739L33.7915 37.9821C33.1798 38.5282 32.685 38.8093 32.3055 38.92L32.8655 40.84ZM35.1235 39.4739C35.8705 38.807 36.4908 38.0536 36.9783 37.2141L35.2487 36.2099C34.8721 36.8584 34.3885 37.449 33.7915 37.9821L35.1235 39.4739ZM36.9733 37.2225C37.4748 36.378 37.7975 35.5247 37.7975 34.696H35.7975C35.7975 35.0193 35.6642 35.51 35.2536 36.2015L36.9733 37.2225ZM37.7975 34.696C37.7975 33.2749 37.4877 31.9744 36.8416 30.8227L35.0973 31.8012C35.5553 32.6176 35.7975 33.5731 35.7975 34.696H37.7975ZM36.8506 30.8392C36.2548 29.7288 35.4744 28.8371 34.4967 28.2044L33.4102 29.8836C34.0645 30.3069 34.6282 30.9272 35.0883 31.7848L36.8506 30.8392ZM34.5082 28.2119C33.5856 27.5969 32.6038 27.252 31.5775 27.252V29.252C32.1352 29.252 32.7374 29.4351 33.3988 29.876L34.5082 28.2119ZM31.5775 27.252C31.1138 27.252 30.6711 27.3705 30.271 27.6105L31.3 29.3255C31.3799 29.2775 31.4652 29.252 31.5775 29.252V27.252ZM30.271 27.6105C29.9351 27.812 29.5473 28.1372 29.1281 28.5318L30.4988 29.9882C30.8956 29.6147 31.1558 29.412 31.3 29.3255L30.271 27.6105ZM31.9015 53.048C33.2822 53.048 34.6299 52.6874 35.9342 51.9953L34.9968 50.2286C33.9491 50.7846 32.9208 51.048 31.9015 51.048V53.048ZM35.9481 51.9878C37.2233 51.2852 38.2976 50.4147 39.1546 49.3703L37.6084 48.1017C36.9294 48.9293 36.0597 49.6428 34.9829 50.2362L35.9481 51.9878ZM39.1546 49.3703C39.9896 48.3526 40.5335 47.2797 40.5335 46.18H38.5335C38.5335 46.6163 38.3094 47.2474 37.6084 48.1017L39.1546 49.3703ZM40.5335 46.18C40.5335 45.1223 39.9926 44.1788 39.1816 43.3609C38.37 42.5425 37.2059 41.763 35.7447 41.0077L34.8263 42.7843C36.1971 43.493 37.1569 44.1595 37.7614 44.7691C38.3664 45.3792 38.5335 45.8457 38.5335 46.18H40.5335ZM35.7327 41.0016C35.2372 40.7538 34.8041 40.5615 34.4497 40.4433L33.8173 42.3407C34.0388 42.4145 34.3738 42.5582 34.8383 42.7904L35.7327 41.0016ZM34.5181 40.4689C34.077 40.2851 33.5908 40.212 33.0895 40.212V42.212C33.4041 42.212 33.614 42.2589 33.7489 42.3151L34.5181 40.4689ZM33.0895 40.212C32.0105 40.212 30.939 40.4012 29.8791 40.7721L30.5398 42.6599C31.4 42.3588 32.2485 42.212 33.0895 42.212V40.212ZM29.8716 40.7748C28.8585 41.1385 27.8055 41.8253 27.8055 43.084H29.8055C29.8055 43.0802 29.8058 43.0804 29.8052 43.0832C29.8046 43.086 29.8039 43.0877 29.804 43.0875C29.8041 43.0871 29.8065 43.082 29.8136 43.0721C29.8209 43.0621 29.8335 43.0465 29.8543 43.0262C29.9465 42.9365 30.1504 42.7997 30.5473 42.6572L29.8716 40.7748ZM29.8055 43.084V43.048H27.8055V43.084H29.8055ZM27.8055 43.048C27.8055 44.0253 27.8681 45.1161 27.9907 46.3175L29.9803 46.1145C29.8629 44.9639 29.8055 43.9427 29.8055 43.048H27.8055ZM27.9929 46.3375C28.1409 47.5461 28.3393 48.6652 28.59 49.693L30.533 49.219C30.3037 48.2788 30.1181 47.2379 29.9781 46.0945L27.9929 46.3375ZM28.5881 49.685C28.7886 50.5372 29.0534 51.2854 29.4391 51.8114L31.0519 50.6286C30.9096 50.4346 30.7184 50.0068 30.5349 49.227L28.5881 49.685ZM29.4043 51.7608C29.6733 52.1792 30.0215 52.5681 30.4823 52.7984L31.3767 51.0096C31.3574 50.9999 31.2497 50.9328 31.0867 50.6792L29.4043 51.7608ZM30.5877 52.8438C30.9933 52.9913 31.4408 53.048 31.9015 53.048V51.048C31.5942 51.048 31.3936 51.0087 31.2712 50.9642L30.5877 52.8438ZM66.1932 52.048L66.6638 51.1656L66.6545 51.1608L66.1932 52.048ZM69.0372 53.092H70.0372V52.3227L69.2936 52.1254L69.0372 53.092ZM69.0372 53.2L69.247 54.1777L70.0372 54.0082V53.2H69.0372ZM60.6492 55L59.6816 54.7476L59.2718 56.3183L60.859 55.9777L60.6492 55ZM61.1172 52.804L62.1006 52.9852L62.3182 51.804H61.1172V52.804ZM60.2892 53.164L60.7711 54.0402L60.7748 54.0382L60.2892 53.164ZM59.4252 53.668L59.9125 54.5412L59.9713 54.5084L60.0252 54.468L59.4252 53.668ZM57.2652 54.784L56.8844 53.8593L56.8743 53.8635L56.8644 53.8678L57.2652 54.784ZM53.5572 54.568L53.2175 55.5086L53.5572 54.568ZM51.3612 53.416L50.721 54.1842L50.7382 54.1986L50.7561 54.2122L51.3612 53.416ZM49.7412 38.728L50.6754 38.3713L50.6726 38.3639L50.6696 38.3566L49.7412 38.728ZM48.6252 37.72L48.1546 38.6024L48.1638 38.6072L48.6252 37.72ZM45.7812 36.676H44.7812V37.4453L45.5247 37.6426L45.7812 36.676ZM45.7812 36.568L45.5796 35.5885L44.7812 35.7528V36.568H45.7812ZM54.5292 34.768L55.5036 34.9929L55.854 33.4745L54.3276 33.7885L54.5292 34.768ZM53.7732 38.728L52.7871 38.5613L52.7852 38.5736L53.7732 38.728ZM53.1972 45.316L52.1984 45.2656L52.1981 45.2737L53.1972 45.316ZM54.2412 52.588L53.8604 53.5127L53.8722 53.5175L53.884 53.5221L54.2412 52.588ZM57.8772 52.696L58.2032 53.6414L57.8772 52.696ZM59.9292 51.688L60.4699 52.5292L60.4734 52.527L59.9292 51.688ZM61.5492 50.032L62.489 50.3737L62.5268 50.2697L62.541 50.16L61.5492 50.032ZM61.8012 47.98L62.7946 48.0946L62.7951 48.0904L61.8012 47.98ZM61.1532 41.284L62.0934 40.9436L62.0878 40.928L62.0816 40.9126L61.1532 41.284ZM60.0372 40.276L59.5666 41.1584L59.5758 41.1632L60.0372 40.276ZM57.1932 39.232H56.1932V40.0013L56.9367 40.1986L57.1932 39.232ZM57.1932 39.124L56.9834 38.1463L56.1932 38.3158V39.124H57.1932ZM65.5812 37.324L66.5523 37.5625L66.9334 36.0111L65.3714 36.3463L65.5812 37.324ZM64.8252 41.284L65.8156 41.4219L65.8166 41.4149L64.8252 41.284ZM65.0772 51.04L64.1363 51.3787L64.1422 51.3952L64.1487 51.4114L65.0772 51.04ZM65.7226 52.9304C66.5349 53.3636 67.5629 53.7355 68.7807 54.0586L69.2936 52.1254C68.1595 51.8245 67.2915 51.5004 66.6638 51.1656L65.7226 52.9304ZM68.0372 53.092V53.2H70.0372V53.092H68.0372ZM68.8274 52.2223L60.4394 54.0223L60.859 55.9777L69.247 54.1777L68.8274 52.2223ZM61.6168 55.2524C61.7695 54.667 61.9306 53.9083 62.1006 52.9852L60.1337 52.6228C59.9678 53.5237 59.8168 54.229 59.6816 54.7476L61.6168 55.2524ZM61.1172 51.804H61.0812V53.804H61.1172V51.804ZM61.0812 51.804C60.8897 51.804 60.7291 51.8553 60.6614 51.8778C60.5708 51.908 60.4805 51.9459 60.3974 51.9836C60.2299 52.0598 60.0292 52.1645 59.8035 52.2898L60.7748 54.0382C60.9812 53.9235 61.1285 53.8482 61.225 53.8044C61.2739 53.7821 61.2945 53.775 61.2939 53.7752C61.2931 53.7755 61.2771 53.7808 61.2497 53.7868C61.2266 53.7918 61.1654 53.804 61.0812 53.804V51.804ZM59.8073 52.2878C59.3559 52.5361 58.9915 52.7433 58.8252 52.868L60.0252 54.468C60.0202 54.4718 60.0675 54.439 60.217 54.3518C60.3507 54.2738 60.5344 54.1704 60.7711 54.0402L59.8073 52.2878ZM58.9378 52.7948C57.9016 53.3732 57.2301 53.717 56.8844 53.8593L57.6459 55.7087C58.1162 55.515 58.8848 55.1148 59.9125 54.5412L58.9378 52.7948ZM56.8644 53.8678C56.6238 53.9731 56.3312 54.036 55.9692 54.036V56.036C56.5672 56.036 57.1385 55.9309 57.666 55.7002L56.8644 53.8678ZM55.9692 54.036C55.3645 54.036 54.6765 53.909 53.8968 53.6274L53.2175 55.5086C54.1658 55.851 55.0858 56.036 55.9692 56.036V54.036ZM53.8968 53.6274C53.108 53.3426 52.4702 53.0028 51.9663 52.6198L50.7561 54.2122C51.4521 54.7412 52.2783 55.1694 53.2175 55.5086L53.8968 53.6274ZM52.0014 52.6478C51.7611 52.4476 51.624 52.2896 51.5521 52.1788C51.4824 52.0713 51.4972 52.0451 51.4972 52.084H49.4972C49.4972 52.9608 50.0947 53.6623 50.721 54.1842L52.0014 52.6478ZM51.4972 52.084V50.896H49.4972V52.084H51.4972ZM51.4972 50.896C51.4972 47.491 51.4341 44.7557 51.3062 42.698C51.1816 40.6921 50.9903 39.1961 50.6754 38.3713L48.807 39.0847C48.996 39.5799 49.1827 40.7719 49.3101 42.822C49.4342 44.8203 49.4972 47.509 49.4972 50.896H51.4972ZM50.6696 38.3566C50.391 37.6599 49.7555 37.1807 49.0865 36.8328L48.1638 38.6072C48.6948 38.8833 48.8034 39.0761 48.8127 39.0994L50.6696 38.3566ZM49.0958 36.8376C48.2835 36.4044 47.2555 36.0325 46.0376 35.7094L45.5247 37.6426C46.6589 37.9435 47.5269 38.2676 48.1546 38.6024L49.0958 36.8376ZM46.7812 36.676V36.568H44.7812V36.676H46.7812ZM45.9827 37.5475L54.7307 35.7475L54.3276 33.7885L45.5796 35.5885L45.9827 37.5475ZM53.5548 34.5431C53.3321 35.5079 53.0763 36.8506 52.7872 38.5613L54.7592 38.8946C55.046 37.1974 55.2942 35.9001 55.5036 34.9929L53.5548 34.5431ZM52.7852 38.5736C52.5371 40.1615 52.343 42.3985 52.1984 45.2656L54.1959 45.3664C54.3393 42.5215 54.5293 40.3665 54.7612 38.8824L52.7852 38.5736ZM52.1981 45.2737C52.078 48.1076 52.0172 50.2015 52.0172 51.544H54.0172C54.0172 50.2465 54.0764 48.1884 54.1963 45.3583L52.1981 45.2737ZM52.0172 51.544C52.0172 52.1364 52.3583 52.5664 52.6742 52.8358C52.9934 53.1081 53.4093 53.3269 53.8604 53.5127L54.6219 51.6633C54.257 51.5131 54.0609 51.3899 53.9721 51.3142C53.88 51.2356 54.0172 51.3116 54.0172 51.544H52.0172ZM53.884 53.5221C54.7719 53.8615 55.6169 54.056 56.4012 54.056V52.056C55.9375 52.056 55.3425 51.9385 54.5983 51.6539L53.884 53.5221ZM56.4012 54.056C56.8774 54.056 57.5162 53.8783 58.2032 53.6414L57.5512 51.7506C56.8462 51.9937 56.501 52.056 56.4012 52.056V54.056ZM58.2032 53.6414C58.9808 53.3732 59.7364 53.0007 60.4699 52.5292L59.3884 50.8468C58.7779 51.2393 58.1656 51.5388 57.5512 51.7506L58.2032 53.6414ZM60.4734 52.527C61.4048 51.9228 62.1811 51.2205 62.489 50.3737L60.6094 49.6903C60.5333 49.8995 60.2295 50.3012 59.385 50.849L60.4734 52.527ZM62.541 50.16C62.6374 49.4123 62.722 48.7238 62.7946 48.0946L60.8078 47.8654C60.7364 48.4842 60.6529 49.1637 60.5574 49.904L62.541 50.16ZM62.7951 48.0904C62.8708 47.4089 62.9092 46.7479 62.9092 46.108H60.9092C60.9092 46.6681 60.8756 47.2551 60.8073 47.8696L62.7951 48.0904ZM62.9092 46.108C62.9092 44.1939 62.6449 42.4667 62.0934 40.9436L60.2129 41.6244C60.6694 42.8853 60.9092 44.3741 60.9092 46.108H62.9092ZM62.0816 40.9126C61.803 40.2159 61.1675 39.7367 60.4985 39.3888L59.5758 41.1632C60.1068 41.4393 60.2154 41.6321 60.2247 41.6554L62.0816 40.9126ZM60.5078 39.3936C59.6955 38.9604 58.6675 38.5885 57.4496 38.2654L56.9367 40.1986C58.0709 40.4995 58.9389 40.8236 59.5666 41.1584L60.5078 39.3936ZM58.1932 39.232V39.124H56.1932V39.232H58.1932ZM57.403 40.1017L65.791 38.3017L65.3714 36.3463L56.9834 38.1463L57.403 40.1017ZM64.61 37.0855C64.2662 38.4855 64.007 39.8415 63.8338 41.1531L65.8166 41.4149C65.9793 40.1824 66.2242 38.8985 66.5523 37.5625L64.61 37.0855ZM63.8347 41.1461C63.5669 43.0694 63.4292 44.7264 63.4292 46.108H65.4292C65.4292 44.8496 65.5554 43.2906 65.8156 41.4219L63.8347 41.1461ZM63.4292 46.108C63.4292 48.2476 63.6482 50.0229 64.1363 51.3787L66.0181 50.7013C65.6422 49.6571 65.4292 48.1444 65.4292 46.108H63.4292ZM64.1487 51.4114C64.4274 52.1081 65.0628 52.5873 65.7318 52.9352L66.6545 51.1608C66.1235 50.8847 66.015 50.6919 66.0057 50.6686L64.1487 51.4114ZM84.4542 37V36H83.4542V37H84.4542ZM95.9022 37H96.9022V36H95.9022V37ZM95.9022 37.108L96.3303 38.0117L96.9022 37.7408V37.108H95.9022ZM93.2382 38.44L93.6854 39.3344L93.6952 39.3295L93.7049 39.3244L93.2382 38.44ZM91.3302 39.556L91.9183 40.3647L91.9281 40.3577L91.9376 40.3504L91.3302 39.556ZM90.5382 40.312L91.2753 40.9877L91.2887 40.9731L91.3016 40.9579L90.5382 40.312ZM89.9982 41.068L90.8837 41.5325L90.8988 41.5038L90.912 41.4741L89.9982 41.068ZM88.3062 44.668L87.3728 44.309L87.3703 44.3156L87.3678 44.3223L88.3062 44.668ZM87.2262 47.8L88.1749 48.1162L88.1768 48.1104L87.2262 47.8ZM86.9742 48.556L87.9182 48.8859L87.9206 48.8791L87.9229 48.8722L86.9742 48.556ZM84.1662 58.168L85.1452 58.372L85.1499 58.3493L85.1535 58.3265L84.1662 58.168ZM82.5822 60.724L81.8125 60.0854L81.8045 60.0953L82.5822 60.724ZM79.5582 63.748L78.9314 62.9687L78.9231 62.9756L79.5582 63.748ZM72.7902 64.54L72.9601 63.5545L72.9509 63.553L72.7902 64.54ZM69.8022 63.748L68.8695 63.3872L68.8658 63.3969L69.8022 63.748ZM72.2142 57.196V56.196H71.478L71.2593 56.8989L72.2142 57.196ZM72.6462 57.196L73.6268 56.9999L73.466 56.196H72.6462V57.196ZM73.5462 60.472L72.5941 60.778L72.5966 60.7857L72.5992 60.7933L73.5462 60.472ZM74.4102 62.668L75.1173 61.9609L74.4102 62.668ZM75.6702 63.496L75.1845 64.3702L75.1912 64.3739L75.198 64.3775L75.6702 63.496ZM78.4422 62.812L77.5802 62.305L78.4422 62.812ZM79.6662 60.076L78.7271 59.7324L78.7221 59.746L78.7175 59.7598L79.6662 60.076ZM80.1342 58.168L81.1206 58.0036L81.1196 57.9981L80.1342 58.168ZM78.0822 49.78L79.0356 49.4785L79.0323 49.4679L79.0287 49.4573L78.0822 49.78ZM73.9782 41.536L74.5896 40.7447L74.5856 40.7416L73.9782 41.536ZM72.0702 40.42L71.6034 41.3044L71.6131 41.3095L71.623 41.3144L72.0702 40.42ZM69.4062 39.088H68.4062V39.7208L68.9781 39.9917L69.4062 39.088ZM69.4062 38.98V37.98H68.4062V38.98H69.4062ZM80.8542 38.98H81.8542V37.98H80.8542V38.98ZM80.8542 39.088L81.5768 39.7792L81.8542 39.4893V39.088H80.8542ZM79.7382 40.384L78.916 39.8148L78.9006 39.8369L78.8865 39.8599L79.7382 40.384ZM79.2342 41.536L80.1675 41.895L80.1785 41.8664L80.1878 41.8371L79.2342 41.536ZM79.0542 42.94H78.0542V42.975L78.0566 43.01L79.0542 42.94ZM79.5222 46.324L78.5505 46.5604L79.5222 46.324ZM80.1702 48.556L79.2293 48.8947L80.1702 48.556ZM80.6022 49.78L81.552 49.4672L81.5509 49.4638L80.6022 49.78ZM82.7622 55.36L81.851 55.7719L82.8184 57.912L83.6907 55.7314L82.7622 55.36ZM84.3102 51.22L85.254 51.5504L85.2557 51.5455L84.3102 51.22ZM85.4262 47.8L84.4703 47.5059L84.4668 47.5178L85.4262 47.8ZM86.1822 44.308L87.1703 44.4613L86.1822 44.308ZM86.3982 40.96L87.3945 40.8746L87.3939 40.8675L87.3932 40.8605L86.3982 40.96ZM86.0742 39.556L85.1206 39.8571L85.1277 39.8796L85.1358 39.9017L86.0742 39.556ZM85.5342 38.404L84.6825 38.9281L84.6966 38.951L84.712 38.9732L85.5342 38.404ZM84.4542 37.108H83.4542V37.5093L83.7315 37.7992L84.4542 37.108ZM84.4542 38H95.9022V36H84.4542V38ZM94.9022 37V37.108H96.9022V37H94.9022ZM95.4741 36.2043C94.5495 36.6422 93.6486 37.0927 92.7714 37.5556L93.7049 39.3244C94.5558 38.8753 95.4309 38.4378 96.3303 38.0117L95.4741 36.2043ZM92.791 37.5456C91.9106 37.9858 91.207 38.3913 90.7227 38.7616L91.9376 40.3504C92.2694 40.0967 92.8378 39.7582 93.6854 39.3344L92.791 37.5456ZM90.742 38.7473C90.3995 38.9964 90.0781 39.3076 89.7748 39.6661L91.3016 40.9579C91.5262 40.6924 91.7329 40.4996 91.9183 40.3647L90.742 38.7473ZM89.801 39.6363C89.5051 39.9591 89.2436 40.3036 89.0844 40.6619L90.912 41.4741C90.9447 41.4004 91.0432 41.2409 91.2753 40.9877L89.801 39.6363ZM89.1126 40.6035C88.3366 42.0828 87.7527 43.3214 87.3728 44.309L89.2395 45.027C89.5797 44.1426 90.1238 42.9812 90.8837 41.5325L89.1126 40.6035ZM87.3678 44.3223C87.0266 45.2486 86.6625 46.3048 86.2756 47.4896L88.1768 48.1104C88.5579 46.9432 88.9138 45.9114 89.2445 45.0137L87.3678 44.3223ZM86.2775 47.4838L86.0255 48.2398L87.9229 48.8722L88.1749 48.1162L86.2775 47.4838ZM86.0302 48.2261C84.4701 52.6902 83.5063 55.9689 83.1788 58.0095L85.1535 58.3265C85.45 56.4791 86.3582 53.3498 87.9182 48.8859L86.0302 48.2261ZM83.1872 57.964C83.162 58.0848 83.0696 58.3258 82.8302 58.7122C82.5986 59.0858 82.2634 59.5422 81.8126 60.0854L83.3517 61.3626C83.837 60.7778 84.2337 60.2442 84.5302 59.7658C84.8187 59.3002 85.0503 58.8272 85.1452 58.372L83.1872 57.964ZM81.8045 60.0953C80.9363 61.1692 79.9786 62.1265 78.9314 62.9688L80.1849 64.5272C81.3457 63.5935 82.4041 62.5348 83.3598 61.3527L81.8045 60.0953ZM78.9231 62.9756C78.4147 63.3935 77.9907 63.6811 77.647 63.8602C77.2937 64.0443 77.0895 64.08 77.0022 64.08V66.08C77.5389 66.08 78.0726 65.8937 78.5713 65.6338C79.0796 65.3689 79.6216 64.9905 80.1933 64.5204L78.9231 62.9756ZM77.0022 64.08C76.3816 64.08 75.0612 63.9168 72.9601 63.5545L72.6203 65.5255C74.6951 65.8832 76.1827 66.08 77.0022 66.08V64.08ZM72.9509 63.553C71.9254 63.3861 71.2001 63.2423 70.7514 63.1234C70.6416 63.0943 70.556 63.0686 70.4915 63.0469C70.4595 63.0361 70.4352 63.0271 70.4173 63.02C70.4086 63.0165 70.402 63.0137 70.3974 63.0117C70.3928 63.0096 70.3907 63.0086 70.391 63.0088C70.3911 63.0088 70.3945 63.0105 70.4005 63.0139C70.4063 63.0172 70.4162 63.023 70.429 63.0315C70.451 63.0462 70.5013 63.0818 70.558 63.1429C70.6737 63.2675 70.914 63.6312 70.7385 64.0991L68.8658 63.3969C68.6724 63.9128 68.928 64.3268 69.0924 64.5038C69.2411 64.6639 69.4118 64.7558 69.5059 64.8022C69.7144 64.9051 69.976 64.9869 70.239 65.0566C70.7863 65.2017 71.591 65.3579 72.6295 65.527L72.9509 63.553ZM70.7348 64.1088C72.0044 60.827 72.8212 58.611 73.169 57.4931L71.2593 56.8989C70.9351 57.941 70.1439 60.093 68.8695 63.3872L70.7348 64.1088ZM72.2142 58.196H72.6462V56.196H72.2142V58.196ZM71.6656 57.3921C71.8442 58.2852 72.1569 59.4178 72.5941 60.778L74.4982 60.166C74.0714 58.8382 73.7841 57.7868 73.6268 56.9999L71.6656 57.3921ZM72.5992 60.7933C72.8289 61.4705 73.0209 62.007 73.1736 62.3951C73.2494 62.5879 73.3209 62.7576 73.3868 62.8952C73.4286 62.9827 73.5342 63.2063 73.7031 63.3751L75.1173 61.9609C75.1606 62.0042 75.1874 62.0404 75.1982 62.0553C75.2105 62.0725 75.2169 62.0834 75.2173 62.084C75.2175 62.0844 75.2088 62.0694 75.1906 62.0313C75.1544 61.9559 75.1029 61.8361 75.0347 61.6629C74.8994 61.319 74.7194 60.8175 74.4931 60.1507L72.5992 60.7933ZM73.7031 63.3751C74.0082 63.6802 74.5493 64.0172 75.1845 64.3702L76.1558 62.6218C75.4951 62.2548 75.1962 62.0398 75.1173 61.9609L73.7031 63.3751ZM75.198 64.3775C75.5586 64.5707 75.8945 64.7285 76.1996 64.8401C76.4914 64.9469 76.8199 65.036 77.1462 65.036V63.036C77.1604 63.036 77.087 63.0351 76.8868 62.9619C76.6999 62.8935 76.4538 62.7813 76.1424 62.6145L75.198 64.3775ZM77.1462 65.036C77.7025 65.036 78.1415 64.7435 78.4448 64.457C78.7575 64.1617 79.041 63.7662 79.3041 63.319L77.5802 62.305C77.3633 62.6738 77.1909 62.8903 77.0715 63.003C76.9429 63.1245 76.9738 63.036 77.1462 63.036V65.036ZM79.3041 63.319C79.8236 62.4358 80.2594 61.4587 80.6149 60.3922L78.7175 59.7598C78.401 60.7093 78.0207 61.5562 77.5802 62.305L79.3041 63.319ZM80.6053 60.4196C80.7914 59.9109 80.9341 59.4675 81.0244 59.0992C81.1043 58.7732 81.1811 58.3668 81.1206 58.0036L79.1478 58.3324C79.138 58.2736 79.1469 58.2627 79.1387 58.3332C79.1315 58.3947 79.1147 58.4892 79.082 58.6228C79.0163 58.8905 78.9009 59.2571 78.7271 59.7324L80.6053 60.4196ZM81.1196 57.9981C80.6316 55.1677 79.9367 52.3278 79.0356 49.4785L77.1287 50.0815C78.0037 52.8482 78.6767 55.6003 79.1487 58.3379L81.1196 57.9981ZM79.0287 49.4573C78.2913 47.2944 77.3004 44.9724 76.0606 42.4928L74.2717 43.3872C75.4799 45.8036 76.433 48.0416 77.1357 50.1027L79.0287 49.4573ZM76.0606 42.4928C75.7211 41.8137 75.221 41.2326 74.5896 40.7447L73.3667 42.3273C73.7913 42.6554 74.0833 43.0103 74.2717 43.3872L76.0606 42.4928ZM74.5856 40.7416C74.1014 40.3713 73.3978 39.9658 72.5174 39.5256L71.623 41.3144C72.4706 41.7382 73.039 42.0767 73.3707 42.3304L74.5856 40.7416ZM72.5369 39.5356C71.6598 39.0727 70.7589 38.6222 69.8343 38.1843L68.9781 39.9917C69.8775 40.4178 70.7526 40.8553 71.6034 41.3044L72.5369 39.5356ZM70.4062 39.088V38.98H68.4062V39.088H70.4062ZM69.4062 39.98H80.8542V37.98H69.4062V39.98ZM79.8542 38.98V39.088H81.8542V38.98H79.8542ZM80.1315 38.3968C79.5959 38.9568 79.1787 39.4353 78.916 39.8148L80.5604 40.9532C80.7296 40.7087 81.0565 40.3232 81.5768 39.7792L80.1315 38.3968ZM78.8865 39.8599C78.6408 40.2592 78.4422 40.723 78.2806 41.2349L80.1878 41.8371C80.3141 41.437 80.4516 41.1328 80.5898 40.9081L78.8865 39.8599ZM78.3008 41.177C78.1136 41.6638 78.0542 42.2808 78.0542 42.94H80.0542C80.0542 42.3512 80.1147 42.0322 80.1675 41.895L78.3008 41.177ZM78.0566 43.01C78.1548 44.4093 78.3164 45.5979 78.5505 46.5604L80.4938 46.0876C80.2959 45.2741 80.1455 44.2067 80.0517 42.87L78.0566 43.01ZM78.5505 46.5604C78.7717 47.4695 78.9973 48.2503 79.2293 48.8947L81.1111 48.2173C80.9111 47.6617 80.7047 46.9545 80.4938 46.0876L78.5505 46.5604ZM79.2293 48.8947C79.4457 49.496 79.5858 49.8932 79.6535 50.0962L81.5509 49.4638C81.4745 49.2348 81.3266 48.816 81.1111 48.2173L79.2293 48.8947ZM79.6523 50.0928C80.3106 52.0919 81.0433 53.9852 81.851 55.7719L83.6734 54.9481C82.8971 53.2308 82.1898 51.4041 81.552 49.4672L79.6523 50.0928ZM83.6907 55.7314C84.2244 54.3969 84.7456 53.0032 85.254 51.5504L83.3663 50.8896C82.8668 52.3168 82.3559 53.6831 81.8337 54.9886L83.6907 55.7314ZM85.2557 51.5455C85.7614 50.0767 86.1391 48.92 86.3855 48.0822L84.4668 47.5178C84.2332 48.312 83.867 49.4353 83.3646 50.8945L85.2557 51.5455ZM86.382 48.0941C86.6888 47.0969 86.9499 45.8822 87.1703 44.4613L85.194 44.1547C84.9825 45.5178 84.7396 46.6311 84.4704 47.5059L86.382 48.0941ZM87.1703 44.4613C87.3916 43.0355 87.4764 41.8296 87.3945 40.8746L85.4018 41.0454C85.464 41.7704 85.4047 42.7965 85.194 44.1547L87.1703 44.4613ZM87.3932 40.8605C87.3367 40.2957 87.2095 39.745 87.0125 39.2103L85.1358 39.9017C85.2748 40.279 85.3636 40.6643 85.4031 41.0595L87.3932 40.8605ZM87.0278 39.2549C86.8611 38.7271 86.6419 38.2472 86.3564 37.8348L84.712 38.9732C84.8585 39.1848 84.9993 39.4729 85.1206 39.8571L87.0278 39.2549ZM86.3858 37.8799C86.1352 37.4727 85.7129 36.9773 85.1768 36.4168L83.7315 37.7992C84.2514 38.3427 84.5491 38.7113 84.6825 38.9281L86.3858 37.8799ZM85.4542 37.108V37H83.4542V37.108H85.4542Z" fill="white" mask="url(#path-2-outside-1_195_712)"/>
<defs>
<linearGradient id="paint0_linear_195_712" x1="58.5" y1="0" x2="58.5" y2="85" gradientUnits="userSpaceOnUse">
<stop stop-color="#4D1181"/>
<stop offset="1" stop-color="#32080B"/>
</linearGradient>
</defs>
</svg>
