<svg width="260" height="123" viewBox="0 0 260 123" fill="none" xmlns="http://www.w3.org/2000/svg">
<path d="M1.5 30C1.5 14.2599 14.2599 1.5 30 1.5H229.706C245.446 1.5 258.206 14.2599 258.206 30V92.1184C258.206 107.858 245.446 120.618 229.706 120.618H30C14.2599 120.618 1.5 107.858 1.5 92.1184V30Z" fill="url(#paint0_linear_195_735)" stroke="white" stroke-width="3"/>
<path d="M43.0348 58.808C45.1708 59.48 47.1388 60.392 48.9388 61.544C50.7388 62.672 51.6388 63.884 51.6388 65.18C51.6388 66.404 50.9788 67.58 49.6588 68.708C48.3388 69.812 46.7428 70.712 44.8708 71.408C42.9988 72.08 41.3428 72.416 39.9028 72.416H38.3188H37.6348H29.1028V72.308C31.1668 71.156 32.4388 70.34 32.9188 69.86C33.2308 69.548 33.4348 69.08 33.5308 68.456C34.0348 65.84 34.2868 63.476 34.2868 61.364C34.2868 59.804 34.2268 57.92 34.1068 55.712C34.0108 53.48 33.8188 51.596 33.5308 50.06C33.4348 49.436 33.2308 48.968 32.9188 48.656C32.4388 48.176 31.1668 47.36 29.1028 46.208V46.1H39.5788C41.0428 46.1 42.4228 46.424 43.7188 47.072C45.0388 47.696 46.0948 48.584 46.8868 49.736C47.7028 50.864 48.1108 52.136 48.1108 53.552C48.1108 54.344 47.5468 55.28 46.4188 56.36C45.3148 57.44 44.1868 58.256 43.0348 58.808ZM37.8148 48.26C37.6228 48.452 37.4788 48.68 37.3828 48.944C37.3108 49.208 37.2508 49.58 37.2028 50.06L36.9148 58.304C36.9868 58.76 37.5028 58.988 38.4628 58.988C38.7748 58.988 39.2668 58.964 39.9388 58.916C40.2268 58.916 40.4428 58.904 40.5868 58.88C41.1628 58.712 41.7868 58.328 42.4588 57.728C43.1308 57.128 43.6828 56.456 44.1148 55.712C44.5708 54.944 44.7988 54.272 44.7988 53.696C44.7988 52.424 44.5228 51.296 43.9708 50.312C43.4428 49.328 42.7708 48.572 41.9548 48.044C41.1628 47.516 40.3708 47.252 39.5788 47.252C39.2908 47.252 39.0268 47.324 38.7868 47.468C38.5468 47.612 38.2228 47.876 37.8148 48.26ZM39.9028 71.048C41.1028 71.048 42.2908 70.736 43.4668 70.112C44.6428 69.464 45.6148 68.672 46.3828 67.736C47.1508 66.8 47.5348 65.948 47.5348 65.18C47.5348 63.788 46.1188 62.36 43.2868 60.896C42.8068 60.656 42.4228 60.488 42.1348 60.392C41.8468 60.272 41.4988 60.212 41.0908 60.212C40.1308 60.212 39.1708 60.38 38.2108 60.716C37.2748 61.052 36.8068 61.508 36.8068 62.084V62.048C36.8068 62.984 36.8668 64.04 36.9868 65.216C37.1308 66.392 37.3228 67.472 37.5628 68.456C37.7548 69.272 37.9828 69.86 38.2468 70.22C38.4628 70.556 38.6908 70.784 38.9308 70.904C39.1948 71 39.5188 71.048 39.9028 71.048ZM74.1945 71.048C74.9145 71.432 75.8625 71.78 77.0385 72.092V72.2L68.6505 74C68.7945 73.448 68.9505 72.716 69.1185 71.804H69.0825C68.9865 71.804 68.7225 71.924 68.2905 72.164C67.8105 72.428 67.5225 72.596 67.4265 72.668C66.3945 73.244 65.6745 73.616 65.2665 73.784C64.8825 73.952 64.4505 74.036 63.9705 74.036C63.2265 74.036 62.4225 73.88 61.5585 73.568C60.6945 73.256 59.9625 72.872 59.3625 72.416C58.7865 71.936 58.4985 71.492 58.4985 71.084V69.896C58.4985 63.104 58.2465 59.048 57.7425 57.728C57.5985 57.368 57.2265 57.032 56.6265 56.72C55.9065 56.336 54.9585 55.988 53.7825 55.676V55.568L62.5305 53.768C62.3145 54.704 62.0625 56.024 61.7745 57.728C61.5345 59.264 61.3425 61.46 61.1985 64.316C61.0785 67.148 61.0185 69.224 61.0185 70.544C61.0185 70.904 61.4265 71.252 62.2425 71.588C63.0585 71.9 63.7785 72.056 64.4025 72.056C64.6905 72.056 65.1825 71.936 65.8785 71.696C66.5745 71.456 67.2585 71.12 67.9305 70.688C68.8185 70.112 69.3585 69.56 69.5505 69.032C69.6465 68.288 69.7305 67.604 69.8025 66.98C69.8745 66.332 69.9105 65.708 69.9105 65.108C69.9105 63.284 69.6585 61.676 69.1545 60.284C69.0105 59.924 68.6385 59.588 68.0385 59.276C67.3185 58.892 66.3705 58.544 65.1945 58.232V58.124L73.5825 56.324C73.2465 57.692 72.9945 59.012 72.8265 60.284C72.5625 62.18 72.4305 63.788 72.4305 65.108C72.4305 67.196 72.6465 68.84 73.0785 70.04C73.2225 70.4 73.5945 70.736 74.1945 71.048ZM92.4555 56H103.903V56.108C102.991 56.54 102.103 56.984 101.239 57.44C100.375 57.872 99.7395 58.244 99.3315 58.556C99.0675 58.748 98.8035 59 98.5395 59.312C98.2755 59.6 98.0955 59.852 97.9995 60.068C97.2315 61.532 96.6675 62.732 96.3075 63.668C95.9715 64.58 95.6115 65.624 95.2275 66.8L94.9755 67.556C93.4155 72.02 92.4795 75.224 92.1675 77.168C92.0475 77.744 91.5195 78.596 90.5835 79.724C89.6715 80.852 88.6635 81.86 87.5595 82.748C86.4795 83.636 85.6275 84.08 85.0035 84.08C84.2835 84.08 82.8795 83.9 80.7915 83.54C78.7275 83.204 77.7315 82.94 77.8035 82.748C79.0755 79.46 79.8795 77.276 80.2155 76.196H80.6475C80.8155 77.036 81.1155 78.128 81.5475 79.472C82.0035 80.816 82.2915 81.548 82.4115 81.668C82.6035 81.86 83.0235 82.136 83.6715 82.496C84.3435 82.856 84.8355 83.036 85.1475 83.036C85.5315 83.036 85.9635 82.628 86.4435 81.812C86.9235 80.996 87.3315 80.084 87.6675 79.076C88.0275 78.092 88.1835 77.456 88.1355 77.168C87.6555 74.384 86.9715 71.588 86.0835 68.78C85.3635 66.668 84.3915 64.388 83.1675 61.94C82.9035 61.412 82.5075 60.944 81.9795 60.536C81.5715 60.224 80.9355 59.852 80.0715 59.42C79.2075 58.964 78.3195 58.52 77.4075 58.088V57.98H88.8555V58.088C88.3275 58.64 87.9555 59.072 87.7395 59.384C87.5475 59.696 87.3795 60.08 87.2355 60.536C87.1155 60.848 87.0555 61.316 87.0555 61.94C87.1515 63.308 87.3075 64.436 87.5235 65.324C87.7395 66.212 87.9555 66.956 88.1715 67.556C88.3875 68.156 88.5315 68.564 88.6035 68.78C89.2515 70.748 89.9715 72.608 90.7635 74.36C91.2915 73.04 91.8075 71.66 92.3115 70.22C92.8155 68.756 93.1875 67.616 93.4275 66.8C93.7155 65.864 93.9675 64.7 94.1835 63.308C94.3995 61.916 94.4715 60.8 94.3995 59.96C94.3515 59.48 94.2435 59.012 94.0755 58.556C93.9315 58.1 93.7515 57.716 93.5355 57.404C93.3435 57.092 92.9835 56.66 92.4555 56.108V56ZM133.809 71.048C134.529 71.432 135.477 71.78 136.653 72.092V72.2L128.265 74C128.505 72.944 128.673 72.164 128.769 71.66L127.689 72.344C126.873 72.896 126.141 73.352 125.493 73.712C124.845 74.048 124.257 74.216 123.729 74.216C122.553 74.216 121.425 73.88 120.345 73.208C119.289 72.536 118.437 71.66 117.789 70.58C117.165 69.5 116.853 68.396 116.853 67.268C116.853 66.236 117.249 65.18 118.041 64.1C118.833 62.996 119.817 62.084 120.993 61.364C122.193 60.62 123.345 60.248 124.449 60.248C125.601 60.248 127.185 60.464 129.201 60.896C129.081 60.08 129.021 59.684 129.021 59.708C128.853 58.916 128.481 58.208 127.905 57.584C127.353 56.936 126.729 56.432 126.033 56.072C125.361 55.712 124.809 55.532 124.377 55.532C124.041 55.532 123.549 55.712 122.901 56.072C122.253 56.408 121.833 56.684 121.641 56.9C121.449 57.14 121.185 57.752 120.849 58.736C120.537 59.696 120.285 60.608 120.093 61.472H119.661L118.797 59.6C118.077 58.016 117.489 56.756 117.033 55.82C116.961 55.628 117.957 55.364 120.021 55.028C122.109 54.668 123.513 54.488 124.233 54.488C125.025 54.488 126.105 54.716 127.473 55.172C128.841 55.628 130.029 56.252 131.037 57.044C132.069 57.836 132.525 58.724 132.405 59.708C132.309 60.5 132.225 61.448 132.153 62.552C132.081 63.632 132.045 64.46 132.045 65.036C132.045 65.852 132.105 66.752 132.225 67.736C132.345 68.696 132.501 69.464 132.693 70.04C132.837 70.4 133.209 70.736 133.809 71.048ZM123.729 73.1C124.185 73.1 124.833 72.812 125.673 72.236C126.513 71.636 127.281 70.94 127.977 70.148C128.697 69.356 129.129 68.684 129.273 68.132C129.441 66.836 129.525 65.828 129.525 65.108C129.525 64.484 129.489 63.812 129.417 63.092C129.201 62.612 128.517 62.228 127.365 61.94C126.237 61.652 125.265 61.508 124.449 61.508C123.873 61.508 123.249 61.832 122.577 62.48C121.929 63.128 121.377 63.932 120.921 64.892C120.465 65.852 120.237 66.728 120.237 67.52C120.237 68.336 120.381 69.188 120.669 70.076C120.981 70.94 121.401 71.66 121.929 72.236C122.481 72.812 123.081 73.1 123.729 73.1ZM146.456 71.444C146.768 71.9 147.068 72.284 147.356 72.596C147.668 72.908 148.16 73.34 148.832 73.892V74H137.384V73.892C139.448 72.74 140.72 71.924 141.2 71.444C141.512 71.132 141.716 70.664 141.812 70.04C142.1 68.504 142.292 66.836 142.388 65.036C142.508 63.236 142.568 61.664 142.568 60.32C142.568 58.976 142.508 57.404 142.388 55.604C142.292 53.804 142.1 52.136 141.812 50.6C141.764 50.264 141.392 49.928 140.696 49.592C139.976 49.208 139.028 48.86 137.852 48.548V48.44L146.24 46.64C146.024 47.552 145.796 48.872 145.556 50.6C145.244 53.168 145.088 56.408 145.088 60.32C145.088 61.664 145.136 63.236 145.232 65.036C145.352 66.836 145.556 68.504 145.844 70.04C145.916 70.496 146.12 70.964 146.456 71.444ZM161.79 55.424C163.422 55.424 164.886 55.916 166.182 56.9C167.478 57.884 168.486 59.108 169.206 60.572C169.95 62.012 170.322 63.38 170.322 64.676C170.322 65.972 169.95 67.352 169.206 68.816C168.486 70.28 167.478 71.516 166.182 72.524C164.886 73.508 163.422 74 161.79 74H150.99V73.892C153.054 72.74 154.326 71.924 154.806 71.444C155.118 71.132 155.322 70.664 155.418 70.04C155.922 67.424 156.174 64.544 156.174 61.4C156.174 59.912 156.114 58.124 155.994 56.036C155.898 53.948 155.706 52.136 155.418 50.6C155.37 50.264 154.998 49.928 154.302 49.592C153.582 49.208 152.634 48.86 151.458 48.548V48.44L159.846 46.64C159.63 47.552 159.402 48.872 159.162 50.6C158.994 52.016 158.862 54.068 158.766 56.756C159.342 56.348 159.894 56.024 160.422 55.784C160.974 55.544 161.43 55.424 161.79 55.424ZM161.79 72.992C162.822 72.92 163.722 72.428 164.49 71.516C165.282 70.58 165.882 69.5 166.29 68.276C166.722 67.028 166.938 65.936 166.938 65C166.938 64.088 166.734 62.972 166.326 61.652C165.942 60.332 165.354 59.18 164.562 58.196C163.794 57.188 162.87 56.684 161.79 56.684C161.358 56.684 160.818 56.924 160.17 57.404C159.522 57.884 159.042 58.412 158.73 58.988C158.706 59.708 158.694 60.512 158.694 61.4C158.694 64.496 158.802 67.376 159.018 70.04C159.138 71.024 159.282 71.672 159.45 71.984C159.618 72.272 159.93 72.512 160.386 72.704C160.866 72.896 161.334 72.992 161.79 72.992ZM193.269 71.048C193.989 71.432 194.937 71.78 196.113 72.092V72.2L187.725 74C187.869 73.448 188.025 72.716 188.193 71.804H188.157C188.061 71.804 187.797 71.924 187.365 72.164C186.885 72.428 186.597 72.596 186.501 72.668C185.469 73.244 184.749 73.616 184.341 73.784C183.957 73.952 183.525 74.036 183.045 74.036C182.301 74.036 181.497 73.88 180.633 73.568C179.769 73.256 179.037 72.872 178.437 72.416C177.861 71.936 177.573 71.492 177.573 71.084V69.896C177.573 63.104 177.321 59.048 176.817 57.728C176.673 57.368 176.301 57.032 175.701 56.72C174.981 56.336 174.033 55.988 172.857 55.676V55.568L181.605 53.768C181.389 54.704 181.137 56.024 180.849 57.728C180.609 59.264 180.417 61.46 180.273 64.316C180.153 67.148 180.093 69.224 180.093 70.544C180.093 70.904 180.501 71.252 181.317 71.588C182.133 71.9 182.853 72.056 183.477 72.056C183.765 72.056 184.257 71.936 184.953 71.696C185.649 71.456 186.333 71.12 187.005 70.688C187.893 70.112 188.433 69.56 188.625 69.032C188.721 68.288 188.805 67.604 188.877 66.98C188.949 66.332 188.985 65.708 188.985 65.108C188.985 63.284 188.733 61.676 188.229 60.284C188.085 59.924 187.713 59.588 187.113 59.276C186.393 58.892 185.445 58.544 184.269 58.232V58.124L192.657 56.324C192.321 57.692 192.069 59.012 191.901 60.284C191.637 62.18 191.505 63.788 191.505 65.108C191.505 67.196 191.721 68.84 192.153 70.04C192.297 70.4 192.669 70.736 193.269 71.048ZM228.227 74.072C228.539 74.528 228.839 74.912 229.127 75.224C229.439 75.536 229.931 75.968 230.603 76.52V76.628H219.155V76.52C221.219 75.392 222.491 74.576 222.971 74.072C223.115 73.928 223.235 73.712 223.331 73.424C223.451 73.136 223.535 72.884 223.583 72.668C223.871 71.132 224.063 69.332 224.159 67.268C224.279 65.204 224.339 63.428 224.339 61.94C224.339 61.676 224.111 61.424 223.655 61.184C223.199 60.92 222.671 60.716 222.071 60.572C221.471 60.428 221.003 60.38 220.667 60.428C220.235 60.5 219.827 60.596 219.443 60.716C219.059 60.836 218.639 61.04 218.183 61.328C217.895 61.52 217.643 61.784 217.427 62.12C217.235 62.432 217.115 62.756 217.067 63.092C217.187 65.252 217.391 67.064 217.679 68.528C217.751 68.984 217.955 69.452 218.291 69.932C218.603 70.388 218.903 70.772 219.191 71.084C219.503 71.396 219.995 71.828 220.667 72.38V72.488H209.975V72.38C211.223 71.54 212.243 70.724 213.035 69.932C213.179 69.788 213.299 69.572 213.395 69.284C213.515 68.996 213.599 68.744 213.647 68.528C214.151 65.912 214.403 62.84 214.403 59.312C214.403 58.952 213.995 58.616 213.179 58.304C212.363 57.968 211.643 57.8 211.019 57.8C210.683 57.8 210.311 57.908 209.903 58.124C209.495 58.316 208.883 58.664 208.067 59.168C207.035 59.84 206.435 60.38 206.267 60.788C206.075 62.18 205.979 63.512 205.979 64.784C205.979 66.512 206.195 68.156 206.627 69.716C206.867 70.532 207.107 71.108 207.347 71.444C207.947 72.356 208.619 73.172 209.363 73.892V74H198.275V73.892C200.339 72.74 201.611 71.924 202.091 71.444C202.283 71.252 202.451 70.988 202.595 70.652C202.739 70.316 202.847 70.016 202.919 69.752C203.135 68.672 203.279 67.784 203.351 67.088C203.423 66.368 203.459 65.6 203.459 64.784C203.459 62.96 203.207 61.352 202.703 59.96C202.559 59.6 202.187 59.264 201.587 58.952C200.867 58.568 199.919 58.22 198.743 57.908V57.8L207.131 56L206.699 57.944C206.747 58.016 206.807 58.052 206.879 58.052C207.095 58.052 207.371 57.932 207.707 57.692L208.823 57.044C209.687 56.54 210.299 56.216 210.659 56.072C211.043 55.904 211.463 55.82 211.919 55.82C212.663 55.82 213.419 55.976 214.187 56.288C214.979 56.6 215.627 56.984 216.131 57.44C216.659 57.896 216.923 58.34 216.923 58.772V60.176L216.995 60.212C217.067 60.212 217.343 60.092 217.823 59.852C218.303 59.612 218.639 59.432 218.831 59.312C219.287 59.048 219.659 58.856 219.947 58.736C220.259 58.592 220.559 58.508 220.847 58.484C220.967 58.46 221.147 58.448 221.387 58.448C222.131 58.448 222.935 58.604 223.799 58.916C224.663 59.228 225.383 59.624 225.959 60.104C226.559 60.56 226.859 60.992 226.859 61.4C226.859 62.96 226.907 64.844 227.003 67.052C227.123 69.26 227.327 71.132 227.615 72.668C227.687 73.124 227.891 73.592 228.227 74.072Z" fill="white"/>
<defs>
<linearGradient id="paint0_linear_195_735" x1="129.853" y1="0" x2="129.853" y2="122.118" gradientUnits="userSpaceOnUse">
<stop stop-color="#4D1181"/>
<stop offset="1" stop-color="#32080B"/>
</linearGradient>
</defs>
</svg>
