<svg xmlns="http://www.w3.org/2000/svg" width="49" height="49" fill="none"><g clip-path="url(#a)"><path fill="url(#b)" d="M33.868.188H14.465C6.583.188.168 6.603.168 14.488v19.4c0 7.885 6.415 14.3 14.3 14.3h19.4c7.885 0 14.3-6.415 14.3-14.3v-19.4c0-7.885-6.415-14.3-14.3-14.3m9.47 33.7a9.47 9.47 0 0 1-9.47 9.471H14.465a9.47 9.47 0 0 1-9.47-9.47V14.487a9.47 9.47 0 0 1 9.47-9.47h19.402a9.47 9.47 0 0 1 9.47 9.47z"/><path fill="url(#c)" d="M24.167 11.773c-6.845 0-12.415 5.57-12.415 12.415s5.57 12.414 12.415 12.414S36.58 31.033 36.58 24.188s-5.569-12.415-12.414-12.415m0 20a7.586 7.586 0 1 1 0-15.17 7.586 7.586 0 0 1 0 15.17"/><path fill="url(#d)" d="M36.606 14.842a2.975 2.975 0 1 0 0-5.95 2.975 2.975 0 0 0 0 5.95"/></g><defs><linearGradient id="b" x1="24.167" x2="24.167" y1="48.048" y2=".561" gradientUnits="userSpaceOnUse"><stop stop-color="#E09B3D"/><stop offset=".3" stop-color="#C74C4D"/><stop offset=".6" stop-color="#C21975"/><stop offset="1" stop-color="#7024C4"/></linearGradient><linearGradient id="c" x1="24.167" x2="24.167" y1="48.048" y2=".561" gradientUnits="userSpaceOnUse"><stop stop-color="#E09B3D"/><stop offset=".3" stop-color="#C74C4D"/><stop offset=".6" stop-color="#C21975"/><stop offset="1" stop-color="#7024C4"/></linearGradient><linearGradient id="d" x1="36.605" x2="36.605" y1="48.048" y2=".561" gradientUnits="userSpaceOnUse"><stop stop-color="#E09B3D"/><stop offset=".3" stop-color="#C74C4D"/><stop offset=".6" stop-color="#C21975"/><stop offset="1" stop-color="#7024C4"/></linearGradient><clipPath id="a"><path fill="#fff" d="M.167.188h48v48h-48z"/></clipPath></defs></svg>