<svg width="117" height="85" viewBox="0 0 117 85" fill="none" xmlns="http://www.w3.org/2000/svg">
<path d="M1.5 30C1.5 14.2599 14.2599 1.5 30 1.5H87C102.74 1.5 115.5 14.2599 115.5 30V55C115.5 70.7401 102.74 83.5 87 83.5H30C14.2599 83.5 1.5 70.7401 1.5 55V30Z" fill="url(#paint0_linear_280_729)" stroke="white" stroke-width="3"/>
<mask id="path-2-outside-1_280_729" maskUnits="userSpaceOnUse" x="14" y="28" width="90" height="32" fill="black">
<rect fill="white" x="14" y="28" width="90" height="32"/>
<path d="M18.813 37C18.813 37.672 19.329 38.308 20.361 38.908C21.393 39.484 22.977 40.204 25.113 41.068C26.961 41.836 28.425 42.496 29.505 43.048C30.609 43.576 31.557 44.2 32.349 44.92C33.141 45.616 33.537 46.384 33.537 47.224C33.537 48.208 32.997 49.396 31.917 50.788C30.837 52.156 29.505 53.344 27.921 54.352C26.361 55.336 24.873 55.828 23.457 55.828C22.881 55.828 21.849 55.636 20.361 55.252C20.265 55.228 19.917 55.144 19.317 55C18.717 54.832 18.249 54.748 17.913 54.748C17.697 54.748 17.553 54.772 17.481 54.82L16.257 55.504L15.933 55.396L15.177 45.1H15.681C16.065 46.468 16.677 48.088 17.517 49.96C18.381 51.808 19.125 52.9 19.749 53.236C20.205 53.5 20.829 53.764 21.621 54.028C22.437 54.268 23.049 54.388 23.457 54.388C24.393 54.388 25.365 54.088 26.373 53.488C27.381 52.864 28.221 52.048 28.893 51.04C29.565 50.032 29.901 48.988 29.901 47.908C29.901 47.284 29.409 46.684 28.425 46.108C27.441 45.532 25.941 44.836 23.925 44.02C22.125 43.3 20.661 42.664 19.533 42.112C18.429 41.536 17.481 40.888 16.689 40.168C15.897 39.424 15.501 38.608 15.501 37.72C15.501 36.448 15.933 35.14 16.797 33.796C17.685 32.428 18.801 31.3 20.145 30.412C21.513 29.524 22.857 29.08 24.177 29.08C24.633 29.08 25.413 29.272 26.517 29.656C27.525 29.992 28.185 30.16 28.497 30.16C28.665 30.16 28.785 30.136 28.857 30.088L30.081 29.404L30.405 29.512L31.161 39.772H30.657C30.273 38.356 29.649 36.7 28.785 34.804C27.921 32.908 27.189 31.792 26.589 31.456C26.013 31.12 25.557 30.88 25.221 30.736C24.885 30.592 24.537 30.52 24.177 30.52C23.265 30.52 22.389 30.832 21.549 31.456C20.733 32.056 20.073 32.86 19.569 33.868C19.065 34.852 18.813 35.896 18.813 37ZM56.2684 52.048C56.9884 52.432 57.9364 52.78 59.1124 53.092V53.2L50.7244 55C50.9644 53.944 51.1324 53.164 51.2284 52.66L50.1484 53.344C49.3324 53.896 48.6004 54.352 47.9524 54.712C47.3044 55.048 46.7164 55.216 46.1884 55.216C45.0124 55.216 43.8844 54.88 42.8044 54.208C41.7484 53.536 40.8964 52.66 40.2484 51.58C39.6244 50.5 39.3124 49.396 39.3124 48.268C39.3124 47.236 39.7084 46.18 40.5004 45.1C41.2924 43.996 42.2764 43.084 43.4524 42.364C44.6524 41.62 45.8044 41.248 46.9084 41.248C48.0604 41.248 49.6444 41.464 51.6604 41.896C51.5404 41.08 51.4804 40.684 51.4804 40.708C51.3124 39.916 50.9404 39.208 50.3644 38.584C49.8124 37.936 49.1884 37.432 48.4924 37.072C47.8204 36.712 47.2684 36.532 46.8364 36.532C46.5004 36.532 46.0084 36.712 45.3604 37.072C44.7124 37.408 44.2924 37.684 44.1004 37.9C43.9084 38.14 43.6444 38.752 43.3084 39.736C42.9964 40.696 42.7444 41.608 42.5524 42.472H42.1204L41.2564 40.6C40.5364 39.016 39.9484 37.756 39.4924 36.82C39.4204 36.628 40.4164 36.364 42.4804 36.028C44.5684 35.668 45.9724 35.488 46.6924 35.488C47.4844 35.488 48.5644 35.716 49.9324 36.172C51.3004 36.628 52.4884 37.252 53.4964 38.044C54.5284 38.836 54.9844 39.724 54.8644 40.708C54.7684 41.5 54.6844 42.448 54.6124 43.552C54.5404 44.632 54.5044 45.46 54.5044 46.036C54.5044 46.852 54.5644 47.752 54.6844 48.736C54.8044 49.696 54.9604 50.464 55.1524 51.04C55.2964 51.4 55.6684 51.736 56.2684 52.048ZM46.1884 54.1C46.6444 54.1 47.2924 53.812 48.1324 53.236C48.9724 52.636 49.7404 51.94 50.4364 51.148C51.1564 50.356 51.5884 49.684 51.7324 49.132C51.9004 47.836 51.9844 46.828 51.9844 46.108C51.9844 45.484 51.9484 44.812 51.8764 44.092C51.6604 43.612 50.9764 43.228 49.8244 42.94C48.6964 42.652 47.7244 42.508 46.9084 42.508C46.3324 42.508 45.7084 42.832 45.0364 43.48C44.3884 44.128 43.8364 44.932 43.3804 45.892C42.9244 46.852 42.6964 47.728 42.6964 48.52C42.6964 49.336 42.8404 50.188 43.1284 51.076C43.4404 51.94 43.8604 52.66 44.3884 53.236C44.9404 53.812 45.5404 54.1 46.1884 54.1ZM72.7471 37H84.1951V37.108C83.2831 37.54 82.3951 37.984 81.5311 38.44C80.6671 38.872 80.0311 39.244 79.6231 39.556C79.3591 39.748 79.0951 40 78.8311 40.312C78.5671 40.6 78.3871 40.852 78.2911 41.068C77.5231 42.532 76.9591 43.732 76.5991 44.668C76.2631 45.58 75.9031 46.624 75.5191 47.8L75.2671 48.556C73.7071 53.02 72.7711 56.224 72.4591 58.168H68.4271C67.9471 55.384 67.2631 52.588 66.3751 49.78C65.6551 47.668 64.6831 45.388 63.4591 42.94C63.1951 42.412 62.7991 41.944 62.2711 41.536C61.8631 41.224 61.2271 40.852 60.3631 40.42C59.4991 39.964 58.6111 39.52 57.6991 39.088V38.98H69.1471V39.088C68.6191 39.64 68.2471 40.072 68.0311 40.384C67.8391 40.696 67.6711 41.08 67.5271 41.536C67.4071 41.848 67.3471 42.316 67.3471 42.94C67.4431 44.308 67.5991 45.436 67.8151 46.324C68.0311 47.212 68.2471 47.956 68.4631 48.556C68.6791 49.156 68.8231 49.564 68.8951 49.78C69.5431 51.748 70.2631 53.608 71.0551 55.36C71.5831 54.04 72.0991 52.66 72.6031 51.22C73.1071 49.756 73.4791 48.616 73.7191 47.8C74.0071 46.864 74.2591 45.7 74.4751 44.308C74.6911 42.916 74.7631 41.8 74.6911 40.96C74.6431 40.48 74.5351 40.012 74.3671 39.556C74.2231 39.1 74.0431 38.716 73.8271 38.404C73.6351 38.092 73.2751 37.66 72.7471 37.108V37ZM92.991 53.956C93.543 53.956 94.251 53.776 95.115 53.416C96.003 53.032 96.855 52.6 97.671 52.12C98.487 51.616 99.063 51.184 99.399 50.824L99.939 51.076C98.883 52.3 97.911 53.32 97.023 54.136C96.159 54.928 95.295 55.324 94.431 55.324C92.775 55.324 91.179 54.904 89.643 54.064C88.131 53.2 86.907 52.12 85.971 50.824C85.035 49.504 84.567 48.22 84.567 46.972C84.567 45.676 84.963 44.188 85.755 42.508C86.547 40.828 87.627 39.4 88.995 38.224C90.363 37.024 91.851 36.424 93.459 36.424C95.091 36.424 96.567 36.88 97.887 37.792C99.231 38.704 100.275 39.832 101.019 41.176C101.787 42.52 102.171 43.756 102.171 44.884C101.571 45.028 100.239 45.256 98.175 45.568C96.135 45.856 94.743 46 93.999 46C93.663 46 93.219 45.964 92.667 45.892C92.139 45.82 91.779 45.772 91.587 45.748C90.579 45.58 89.811 45.496 89.283 45.496C88.851 45.496 88.575 45.568 88.455 45.712C88.359 46.48 88.311 46.972 88.311 47.188C88.311 48.052 88.515 49.024 88.923 50.104C89.331 51.184 89.883 52.096 90.579 52.84C91.299 53.584 92.103 53.956 92.991 53.956ZM93.459 37.684C92.427 37.684 91.527 38.248 90.759 39.376C90.015 40.48 89.403 41.848 88.923 43.48C89.019 43.792 89.667 44.068 90.867 44.308C92.067 44.548 93.087 44.668 93.927 44.668C94.527 44.668 95.319 44.572 96.303 44.38C97.311 44.188 98.031 43.984 98.463 43.768C98.583 43.696 98.643 43.576 98.643 43.408C98.643 43.288 98.595 43.06 98.499 42.724C98.139 41.26 97.551 40.06 96.735 39.124C95.943 38.164 94.851 37.684 93.459 37.684Z"/>
</mask>
<path d="M18.813 37C18.813 37.672 19.329 38.308 20.361 38.908C21.393 39.484 22.977 40.204 25.113 41.068C26.961 41.836 28.425 42.496 29.505 43.048C30.609 43.576 31.557 44.2 32.349 44.92C33.141 45.616 33.537 46.384 33.537 47.224C33.537 48.208 32.997 49.396 31.917 50.788C30.837 52.156 29.505 53.344 27.921 54.352C26.361 55.336 24.873 55.828 23.457 55.828C22.881 55.828 21.849 55.636 20.361 55.252C20.265 55.228 19.917 55.144 19.317 55C18.717 54.832 18.249 54.748 17.913 54.748C17.697 54.748 17.553 54.772 17.481 54.82L16.257 55.504L15.933 55.396L15.177 45.1H15.681C16.065 46.468 16.677 48.088 17.517 49.96C18.381 51.808 19.125 52.9 19.749 53.236C20.205 53.5 20.829 53.764 21.621 54.028C22.437 54.268 23.049 54.388 23.457 54.388C24.393 54.388 25.365 54.088 26.373 53.488C27.381 52.864 28.221 52.048 28.893 51.04C29.565 50.032 29.901 48.988 29.901 47.908C29.901 47.284 29.409 46.684 28.425 46.108C27.441 45.532 25.941 44.836 23.925 44.02C22.125 43.3 20.661 42.664 19.533 42.112C18.429 41.536 17.481 40.888 16.689 40.168C15.897 39.424 15.501 38.608 15.501 37.72C15.501 36.448 15.933 35.14 16.797 33.796C17.685 32.428 18.801 31.3 20.145 30.412C21.513 29.524 22.857 29.08 24.177 29.08C24.633 29.08 25.413 29.272 26.517 29.656C27.525 29.992 28.185 30.16 28.497 30.16C28.665 30.16 28.785 30.136 28.857 30.088L30.081 29.404L30.405 29.512L31.161 39.772H30.657C30.273 38.356 29.649 36.7 28.785 34.804C27.921 32.908 27.189 31.792 26.589 31.456C26.013 31.12 25.557 30.88 25.221 30.736C24.885 30.592 24.537 30.52 24.177 30.52C23.265 30.52 22.389 30.832 21.549 31.456C20.733 32.056 20.073 32.86 19.569 33.868C19.065 34.852 18.813 35.896 18.813 37ZM56.2684 52.048C56.9884 52.432 57.9364 52.78 59.1124 53.092V53.2L50.7244 55C50.9644 53.944 51.1324 53.164 51.2284 52.66L50.1484 53.344C49.3324 53.896 48.6004 54.352 47.9524 54.712C47.3044 55.048 46.7164 55.216 46.1884 55.216C45.0124 55.216 43.8844 54.88 42.8044 54.208C41.7484 53.536 40.8964 52.66 40.2484 51.58C39.6244 50.5 39.3124 49.396 39.3124 48.268C39.3124 47.236 39.7084 46.18 40.5004 45.1C41.2924 43.996 42.2764 43.084 43.4524 42.364C44.6524 41.62 45.8044 41.248 46.9084 41.248C48.0604 41.248 49.6444 41.464 51.6604 41.896C51.5404 41.08 51.4804 40.684 51.4804 40.708C51.3124 39.916 50.9404 39.208 50.3644 38.584C49.8124 37.936 49.1884 37.432 48.4924 37.072C47.8204 36.712 47.2684 36.532 46.8364 36.532C46.5004 36.532 46.0084 36.712 45.3604 37.072C44.7124 37.408 44.2924 37.684 44.1004 37.9C43.9084 38.14 43.6444 38.752 43.3084 39.736C42.9964 40.696 42.7444 41.608 42.5524 42.472H42.1204L41.2564 40.6C40.5364 39.016 39.9484 37.756 39.4924 36.82C39.4204 36.628 40.4164 36.364 42.4804 36.028C44.5684 35.668 45.9724 35.488 46.6924 35.488C47.4844 35.488 48.5644 35.716 49.9324 36.172C51.3004 36.628 52.4884 37.252 53.4964 38.044C54.5284 38.836 54.9844 39.724 54.8644 40.708C54.7684 41.5 54.6844 42.448 54.6124 43.552C54.5404 44.632 54.5044 45.46 54.5044 46.036C54.5044 46.852 54.5644 47.752 54.6844 48.736C54.8044 49.696 54.9604 50.464 55.1524 51.04C55.2964 51.4 55.6684 51.736 56.2684 52.048ZM46.1884 54.1C46.6444 54.1 47.2924 53.812 48.1324 53.236C48.9724 52.636 49.7404 51.94 50.4364 51.148C51.1564 50.356 51.5884 49.684 51.7324 49.132C51.9004 47.836 51.9844 46.828 51.9844 46.108C51.9844 45.484 51.9484 44.812 51.8764 44.092C51.6604 43.612 50.9764 43.228 49.8244 42.94C48.6964 42.652 47.7244 42.508 46.9084 42.508C46.3324 42.508 45.7084 42.832 45.0364 43.48C44.3884 44.128 43.8364 44.932 43.3804 45.892C42.9244 46.852 42.6964 47.728 42.6964 48.52C42.6964 49.336 42.8404 50.188 43.1284 51.076C43.4404 51.94 43.8604 52.66 44.3884 53.236C44.9404 53.812 45.5404 54.1 46.1884 54.1ZM72.7471 37H84.1951V37.108C83.2831 37.54 82.3951 37.984 81.5311 38.44C80.6671 38.872 80.0311 39.244 79.6231 39.556C79.3591 39.748 79.0951 40 78.8311 40.312C78.5671 40.6 78.3871 40.852 78.2911 41.068C77.5231 42.532 76.9591 43.732 76.5991 44.668C76.2631 45.58 75.9031 46.624 75.5191 47.8L75.2671 48.556C73.7071 53.02 72.7711 56.224 72.4591 58.168H68.4271C67.9471 55.384 67.2631 52.588 66.3751 49.78C65.6551 47.668 64.6831 45.388 63.4591 42.94C63.1951 42.412 62.7991 41.944 62.2711 41.536C61.8631 41.224 61.2271 40.852 60.3631 40.42C59.4991 39.964 58.6111 39.52 57.6991 39.088V38.98H69.1471V39.088C68.6191 39.64 68.2471 40.072 68.0311 40.384C67.8391 40.696 67.6711 41.08 67.5271 41.536C67.4071 41.848 67.3471 42.316 67.3471 42.94C67.4431 44.308 67.5991 45.436 67.8151 46.324C68.0311 47.212 68.2471 47.956 68.4631 48.556C68.6791 49.156 68.8231 49.564 68.8951 49.78C69.5431 51.748 70.2631 53.608 71.0551 55.36C71.5831 54.04 72.0991 52.66 72.6031 51.22C73.1071 49.756 73.4791 48.616 73.7191 47.8C74.0071 46.864 74.2591 45.7 74.4751 44.308C74.6911 42.916 74.7631 41.8 74.6911 40.96C74.6431 40.48 74.5351 40.012 74.3671 39.556C74.2231 39.1 74.0431 38.716 73.8271 38.404C73.6351 38.092 73.2751 37.66 72.7471 37.108V37ZM92.991 53.956C93.543 53.956 94.251 53.776 95.115 53.416C96.003 53.032 96.855 52.6 97.671 52.12C98.487 51.616 99.063 51.184 99.399 50.824L99.939 51.076C98.883 52.3 97.911 53.32 97.023 54.136C96.159 54.928 95.295 55.324 94.431 55.324C92.775 55.324 91.179 54.904 89.643 54.064C88.131 53.2 86.907 52.12 85.971 50.824C85.035 49.504 84.567 48.22 84.567 46.972C84.567 45.676 84.963 44.188 85.755 42.508C86.547 40.828 87.627 39.4 88.995 38.224C90.363 37.024 91.851 36.424 93.459 36.424C95.091 36.424 96.567 36.88 97.887 37.792C99.231 38.704 100.275 39.832 101.019 41.176C101.787 42.52 102.171 43.756 102.171 44.884C101.571 45.028 100.239 45.256 98.175 45.568C96.135 45.856 94.743 46 93.999 46C93.663 46 93.219 45.964 92.667 45.892C92.139 45.82 91.779 45.772 91.587 45.748C90.579 45.58 89.811 45.496 89.283 45.496C88.851 45.496 88.575 45.568 88.455 45.712C88.359 46.48 88.311 46.972 88.311 47.188C88.311 48.052 88.515 49.024 88.923 50.104C89.331 51.184 89.883 52.096 90.579 52.84C91.299 53.584 92.103 53.956 92.991 53.956ZM93.459 37.684C92.427 37.684 91.527 38.248 90.759 39.376C90.015 40.48 89.403 41.848 88.923 43.48C89.019 43.792 89.667 44.068 90.867 44.308C92.067 44.548 93.087 44.668 93.927 44.668C94.527 44.668 95.319 44.572 96.303 44.38C97.311 44.188 98.031 43.984 98.463 43.768C98.583 43.696 98.643 43.576 98.643 43.408C98.643 43.288 98.595 43.06 98.499 42.724C98.139 41.26 97.551 40.06 96.735 39.124C95.943 38.164 94.851 37.684 93.459 37.684Z" fill="white"/>
<path d="M20.361 38.908L19.8583 39.7725L19.8659 39.7769L19.8736 39.7812L20.361 38.908ZM25.113 41.068L25.4967 40.1445L25.4879 40.141L25.113 41.068ZM29.505 43.048L29.0498 43.9384L29.0616 43.9444L29.0735 43.9501L29.505 43.048ZM32.349 44.92L31.6763 45.6599L31.6825 45.6656L31.6888 45.6712L32.349 44.92ZM31.917 50.788L32.7019 51.4077L32.707 51.401L31.917 50.788ZM27.921 54.352L28.4545 55.1978L28.4578 55.1957L27.921 54.352ZM20.361 55.252L20.6108 54.2837L20.6035 54.2819L20.361 55.252ZM19.317 55L19.0473 55.963L19.0654 55.968L19.0836 55.9724L19.317 55ZM17.481 54.82L17.9688 55.6929L18.003 55.6738L18.0357 55.6521L17.481 54.82ZM16.257 55.504L15.9407 56.4527L16.3595 56.5923L16.7448 56.3769L16.257 55.504ZM15.933 55.396L14.9356 55.4692L14.9844 56.1339L15.6167 56.3447L15.933 55.396ZM15.177 45.1V44.1H14.1008L14.1796 45.1732L15.177 45.1ZM15.681 45.1L16.6437 44.8297L16.4389 44.1H15.681V45.1ZM17.517 49.96L16.6046 50.3694L16.6078 50.3765L16.6111 50.3835L17.517 49.96ZM19.749 53.236L20.25 52.3706L20.2366 52.3628L20.2231 52.3555L19.749 53.236ZM21.621 54.028L21.3047 54.9767L21.3217 54.9823L21.3388 54.9874L21.621 54.028ZM26.373 53.488L26.8844 54.3473L26.8919 54.3428L26.8993 54.3383L26.373 53.488ZM28.425 46.108L27.9198 46.971L28.425 46.108ZM23.925 44.02L24.3001 43.093L24.2963 43.0915L23.925 44.02ZM19.533 42.112L19.0704 42.9986L19.0818 43.0045L19.0934 43.0102L19.533 42.112ZM16.689 40.168L16.0043 40.8968L16.0102 40.9024L16.0163 40.9079L16.689 40.168ZM16.797 33.796L15.9582 33.2515L15.9558 33.2552L16.797 33.796ZM20.145 30.412L19.6005 29.5732L19.5937 29.5777L20.145 30.412ZM26.517 29.656L26.1884 30.6006L26.2007 30.6047L26.517 29.656ZM28.857 30.088L28.3691 29.2151L28.3349 29.2342L28.3023 29.2559L28.857 30.088ZM30.081 29.404L30.3972 28.4553L29.9784 28.3157L29.5931 28.5311L30.081 29.404ZM30.405 29.512L31.4023 29.4385L31.3533 28.774L30.7212 28.5633L30.405 29.512ZM31.161 39.772V40.772H32.2374L32.1582 39.6985L31.161 39.772ZM30.657 39.772L29.6918 40.0337L29.892 40.772H30.657V39.772ZM28.785 34.804L29.6949 34.3893L28.785 34.804ZM26.589 31.456L26.0851 32.3198L26.0927 32.3242L26.1003 32.3285L26.589 31.456ZM21.549 31.456L22.1414 32.2617L22.1453 32.2587L21.549 31.456ZM19.569 33.868L20.459 34.3239L20.4634 34.3152L19.569 33.868ZM17.813 37C17.813 38.2386 18.759 39.1334 19.8583 39.7725L20.8636 38.0435C19.8989 37.4826 19.813 37.1054 19.813 37H17.813ZM19.8736 39.7812C20.9616 40.3884 22.5923 41.1271 24.738 41.995L25.4879 40.141C23.3616 39.2809 21.8243 38.5796 20.8483 38.0348L19.8736 39.7812ZM24.7292 41.9914C26.5663 42.7549 28.0032 43.4035 29.0498 43.9384L29.9601 42.1576C28.8467 41.5885 27.3556 40.9171 25.4967 40.1446L24.7292 41.9914ZM29.0735 43.9501C30.102 44.442 30.9658 45.0141 31.6763 45.6599L33.0216 44.1801C32.1481 43.3859 31.1159 42.71 29.9364 42.1459L29.0735 43.9501ZM31.6888 45.6712C32.3242 46.2295 32.537 46.7422 32.537 47.224H34.537C34.537 46.0258 33.9577 45.0025 33.0091 44.1688L31.6888 45.6712ZM32.537 47.224C32.537 47.8692 32.166 48.8357 31.1269 50.175L32.707 51.401C33.8279 49.9563 34.537 48.5468 34.537 47.224H32.537ZM31.1321 50.1684C30.1268 51.4417 28.8808 52.5559 27.3841 53.5083L28.4578 55.1957C30.1292 54.1321 31.5471 52.8703 32.7018 51.4076L31.1321 50.1684ZM27.3875 53.5062C25.9397 54.4194 24.6349 54.828 23.457 54.828V56.828C25.111 56.828 26.7822 56.2526 28.4545 55.1978L27.3875 53.5062ZM23.457 54.828C23.0251 54.828 22.1093 54.6704 20.6108 54.2837L20.1111 56.2203C21.5887 56.6016 22.7368 56.828 23.457 56.828V54.828ZM20.6035 54.2819C20.5016 54.2564 20.1474 54.1709 19.5503 54.0276L19.0836 55.9724C19.6865 56.1171 20.0283 56.1996 20.1184 56.2221L20.6035 54.2819ZM19.5866 54.037C18.96 53.8616 18.3871 53.748 17.913 53.748V55.748C18.1108 55.748 18.4739 55.8024 19.0473 55.963L19.5866 54.037ZM17.913 53.748C17.7734 53.748 17.624 53.7554 17.4786 53.7796C17.3501 53.801 17.1342 53.8493 16.9263 53.9879L18.0357 55.6521C17.9607 55.702 17.8971 55.7264 17.8647 55.7372C17.8306 55.7486 17.8093 55.7521 17.8074 55.7524C17.8059 55.7526 17.8365 55.748 17.913 55.748V53.748ZM16.9931 53.9471L15.7691 54.6311L16.7448 56.3769L17.9688 55.6929L16.9931 53.9471ZM16.5732 54.5553L16.2492 54.4473L15.6167 56.3447L15.9407 56.4527L16.5732 54.5553ZM16.9303 55.3228L16.1743 45.0268L14.1796 45.1732L14.9356 55.4692L16.9303 55.3228ZM15.177 46.1H15.681V44.1H15.177V46.1ZM14.7182 45.3703C15.1199 46.8016 15.7524 48.4703 16.6046 50.3694L18.4293 49.5506C17.6015 47.7057 17.01 46.1344 16.6437 44.8297L14.7182 45.3703ZM16.6111 50.3835C17.055 51.333 17.4828 52.1208 17.8965 52.7281C18.2935 53.3107 18.7463 53.8318 19.2749 54.1165L20.2231 52.3555C20.1276 52.3041 19.8964 52.1113 19.5494 51.6019C19.2191 51.1172 18.8429 50.435 18.4228 49.5365L16.6111 50.3835ZM19.2479 54.1014C19.7862 54.4131 20.4811 54.7021 21.3047 54.9767L21.9372 53.0793C21.1769 52.8259 20.6237 52.5869 20.25 52.3706L19.2479 54.1014ZM21.3388 54.9874C22.1696 55.2317 22.8973 55.388 23.457 55.388V53.388C23.2006 53.388 22.7043 53.3043 21.9031 53.0686L21.3388 54.9874ZM23.457 55.388C24.6133 55.388 25.7605 55.0163 26.8844 54.3473L25.8615 52.6287C24.9694 53.1597 24.1726 53.388 23.457 53.388V55.388ZM26.8993 54.3383C28.0319 53.6371 28.9753 52.7193 29.725 51.5947L28.0609 50.4853C27.4666 51.3767 26.73 52.0909 25.8466 52.6377L26.8993 54.3383ZM29.725 51.5947C30.4927 50.4431 30.901 49.2089 30.901 47.908H28.901C28.901 48.7671 28.6372 49.6209 28.0609 50.4853L29.725 51.5947ZM30.901 47.908C30.901 46.7115 29.9693 45.8533 28.9301 45.245L27.9198 46.971C28.8486 47.5147 28.901 47.8565 28.901 47.908H30.901ZM28.9301 45.245C27.8823 44.6316 26.3285 43.9141 24.3001 43.0931L23.5498 44.9469C25.5534 45.7579 26.9996 46.4324 27.9198 46.971L28.9301 45.245ZM24.2963 43.0915C22.5085 42.3764 21.0696 41.7507 19.9725 41.2138L19.0934 43.0102C20.2523 43.5773 21.7414 44.2236 23.5536 44.9485L24.2963 43.0915ZM19.9955 41.2254C18.9555 40.6828 18.0808 40.0819 17.3616 39.4281L16.0163 40.9079C16.8811 41.6941 17.9024 42.3892 19.0704 42.9986L19.9955 41.2254ZM17.3736 39.4392C16.7345 38.8387 16.501 38.2719 16.501 37.72H14.501C14.501 38.944 15.0594 40.0093 16.0043 40.8968L17.3736 39.4392ZM16.501 37.72C16.501 36.6834 16.8514 35.5606 17.6381 34.3368L15.9558 33.2552C15.0145 34.7194 14.501 36.2126 14.501 37.72H16.501ZM17.6357 34.3405C18.4498 33.0864 19.4684 32.0575 20.6962 31.2463L19.5937 29.5777C18.1335 30.5424 16.9201 31.7696 15.9582 33.2515L17.6357 34.3405ZM20.6894 31.2508C21.9336 30.4431 23.0913 30.08 24.177 30.08V28.08C22.6226 28.08 21.0923 28.6049 19.6005 29.5732L20.6894 31.2508ZM24.177 30.08C24.4431 30.08 25.075 30.2132 26.1884 30.6005L26.8455 28.7115C25.7509 28.3308 24.8229 28.08 24.177 28.08V30.08ZM26.2007 30.6047C26.7165 30.7766 27.1587 30.9108 27.5213 31.0031C27.8601 31.0893 28.2069 31.16 28.497 31.16V29.16C28.499 29.16 28.4616 29.1593 28.368 29.1431C28.2797 29.1278 28.1631 29.1027 28.0146 29.0649C27.7172 28.9892 27.3254 28.8714 26.8332 28.7073L26.2007 30.6047ZM28.497 31.16C28.7066 31.16 29.0814 31.1402 29.4116 30.9201L28.3023 29.2559C28.41 29.1841 28.4978 29.1652 28.5168 29.1614C28.5402 29.1567 28.5376 29.16 28.497 29.16V31.16ZM29.3448 30.9609L30.5688 30.2769L29.5931 28.5311L28.3691 29.2151L29.3448 30.9609ZM29.7647 30.3527L30.0887 30.4607L30.7212 28.5633L30.3972 28.4553L29.7647 30.3527ZM29.4077 29.5855L30.1637 39.8455L32.1582 39.6985L31.4023 29.4385L29.4077 29.5855ZM31.161 38.772H30.657V40.772H31.161V38.772ZM31.6221 39.5103C31.2194 38.0252 30.5729 36.316 29.6949 34.3893L27.875 35.2187C28.725 37.084 29.3265 38.6868 29.6918 40.0337L31.6221 39.5103ZM29.6949 34.3893C29.2521 33.4176 28.8291 32.6139 28.4241 31.9965C28.0381 31.408 27.5963 30.874 27.0776 30.5835L26.1003 32.3285C26.1816 32.374 26.4058 32.566 26.7518 33.0935C27.0788 33.5921 27.4538 34.2944 27.875 35.2187L29.6949 34.3893ZM27.0928 30.5922C26.5051 30.2494 26.0075 29.9851 25.6149 29.8169L24.827 31.6551C25.1064 31.7749 25.5208 31.9906 26.0851 32.3198L27.0928 30.5922ZM25.6149 29.8169C25.1564 29.6204 24.6745 29.52 24.177 29.52V31.52C24.3994 31.52 24.6135 31.5636 24.827 31.6551L25.6149 29.8169ZM24.177 29.52C23.0194 29.52 21.9386 29.9208 20.9526 30.6533L22.1453 32.2587C22.8393 31.7432 23.5105 31.52 24.177 31.52V29.52ZM20.9566 30.6503C19.9991 31.3544 19.2413 32.2873 18.6745 33.4208L20.4634 34.3152C20.9046 33.4327 21.4668 32.7576 22.1413 32.2617L20.9566 30.6503ZM18.6789 33.4121C18.1027 34.537 17.813 35.7372 17.813 37H19.813C19.813 36.0548 20.0272 35.167 20.459 34.3239L18.6789 33.4121ZM56.2684 52.048L56.739 51.1656L56.7298 51.1608L56.2684 52.048ZM59.1124 53.092H60.1124V52.3227L59.3689 52.1254L59.1124 53.092ZM59.1124 53.2L59.3222 54.1777L60.1124 54.0082V53.2H59.1124ZM50.7244 55L49.7493 54.7784L49.402 56.3066L50.9342 55.9777L50.7244 55ZM51.2284 52.66L52.2108 52.8471L52.6424 50.5808L50.6934 51.8152L51.2284 52.66ZM50.1484 53.344L49.6134 52.4992L49.6006 52.5073L49.5881 52.5157L50.1484 53.344ZM47.9524 54.712L48.4127 55.5998L48.4255 55.5931L48.4381 55.5862L47.9524 54.712ZM42.8044 54.208L42.2675 55.0517L42.2761 55.0571L42.8044 54.208ZM40.2484 51.58L39.3826 52.0803L39.3867 52.0874L39.3909 52.0945L40.2484 51.58ZM40.5004 45.1L41.3069 45.6914L41.313 45.6829L40.5004 45.1ZM43.4524 42.364L43.9746 43.2169L43.9794 43.2139L43.4524 42.364ZM51.6604 41.896L51.4509 42.8738L52.8594 43.1756L52.6498 41.7505L51.6604 41.896ZM51.4804 40.708L50.5022 40.9155L52.4804 40.708H51.4804ZM50.3644 38.584L49.6032 39.2325L49.6161 39.2476L49.6296 39.2623L50.3644 38.584ZM48.4924 37.072L48.0202 37.9535L48.0266 37.9569L48.033 37.9602L48.4924 37.072ZM45.3604 37.072L45.8207 37.9598L45.8335 37.9531L45.8461 37.9462L45.3604 37.072ZM44.1004 37.9L43.353 37.2356L43.3358 37.255L43.3196 37.2753L44.1004 37.9ZM43.3084 39.736L42.3621 39.4129L42.3597 39.4199L42.3574 39.4269L43.3084 39.736ZM42.5524 42.472V43.472H43.3546L43.5286 42.6889L42.5524 42.472ZM42.1204 42.472L41.2125 42.8911L41.4806 43.472H42.1204V42.472ZM41.2564 40.6L40.346 41.0138L40.3485 41.0191L41.2564 40.6ZM39.4924 36.82L38.5561 37.1711L38.5727 37.2154L38.5934 37.258L39.4924 36.82ZM42.4804 36.028L42.6411 37.015L42.6503 37.0135L42.4804 36.028ZM49.9324 36.172L49.6162 37.1207L49.9324 36.172ZM53.4964 38.044L52.8786 38.8304L52.8876 38.8373L53.4964 38.044ZM54.8644 40.708L53.8718 40.5869L53.8717 40.5877L54.8644 40.708ZM54.6124 43.552L55.6102 43.6185L55.6103 43.6171L54.6124 43.552ZM54.6844 48.736L53.6918 48.8571L53.6921 48.86L54.6844 48.736ZM55.1524 51.04L54.2037 51.3562L54.213 51.3841L54.2239 51.4114L55.1524 51.04ZM48.1324 53.236L48.698 54.0607L48.7059 54.0553L48.7137 54.0497L48.1324 53.236ZM50.4364 51.148L49.6965 50.4753L49.6908 50.4816L49.6853 50.4879L50.4364 51.148ZM51.7324 49.132L52.7 49.3844L52.716 49.3232L52.7241 49.2606L51.7324 49.132ZM51.8764 44.092L52.8715 43.9925L52.8552 43.8303L52.7883 43.6816L51.8764 44.092ZM49.8244 42.94L49.577 43.9089L49.5819 43.9101L49.8244 42.94ZM45.0364 43.48L44.3423 42.7602L44.3357 42.7665L44.3293 42.7729L45.0364 43.48ZM43.3804 45.892L44.2837 46.3211L43.3804 45.892ZM43.1284 51.076L42.1772 51.3845L42.1823 51.4002L42.1879 51.4156L43.1284 51.076ZM44.3884 53.236L43.6513 53.9117L43.6588 53.9199L43.6664 53.9279L44.3884 53.236ZM55.7978 52.9304C56.6101 53.3636 57.6381 53.7355 58.856 54.0586L59.3689 52.1254C58.2347 51.8245 57.3667 51.5004 56.739 51.1656L55.7978 52.9304ZM58.1124 53.092V53.2H60.1124V53.092H58.1124ZM58.9026 52.2223L50.5146 54.0223L50.9342 55.9777L59.3222 54.1777L58.9026 52.2223ZM51.6996 55.2216C51.94 54.1638 52.1113 53.3694 52.2108 52.8471L50.2461 52.4729C50.1536 52.9586 49.9889 53.7242 49.7493 54.7784L51.6996 55.2216ZM50.6934 51.8152L49.6134 52.4992L50.6835 54.1888L51.7635 53.5048L50.6934 51.8152ZM49.5881 52.5157C48.789 53.0563 48.0825 53.4958 47.4668 53.8378L48.4381 55.5862C49.1183 55.2082 49.8759 54.7357 50.7087 54.1723L49.5881 52.5157ZM47.4921 53.8242C46.9349 54.1132 46.5068 54.216 46.1884 54.216V56.216C46.926 56.216 47.674 55.9828 48.4127 55.5998L47.4921 53.8242ZM46.1884 54.216C45.2144 54.216 44.2676 53.9407 43.3327 53.3589L42.2761 55.0571C43.5012 55.8193 44.8105 56.216 46.1884 56.216V54.216ZM43.3413 53.3643C42.4171 52.7762 41.6746 52.0132 41.1059 51.0655L39.3909 52.0945C40.1183 53.3068 41.0797 54.2958 42.2675 55.0517L43.3413 53.3643ZM41.1143 51.0797C40.5686 50.1353 40.3124 49.2022 40.3124 48.268H38.3124C38.3124 49.5898 38.6802 50.8647 39.3826 52.0803L41.1143 51.0797ZM40.3124 48.268C40.3124 47.5043 40.6032 46.6509 41.3068 45.6914L39.694 44.5086C38.8137 45.7091 38.3124 46.9677 38.3124 48.268H40.3124ZM41.313 45.6829C42.026 44.689 42.9107 43.8682 43.9746 43.2169L42.9303 41.5111C41.6422 42.2998 40.5589 43.303 39.6879 44.5171L41.313 45.6829ZM43.9794 43.2139C45.0647 42.541 46.036 42.248 46.9084 42.248V40.248C45.5729 40.248 44.2402 40.699 42.9255 41.5141L43.9794 43.2139ZM46.9084 42.248C47.9555 42.248 49.4589 42.4469 51.4509 42.8738L51.87 40.9182C49.8299 40.4811 48.1654 40.248 46.9084 40.248V42.248ZM52.6498 41.7505C52.5897 41.3422 52.5445 41.0375 52.5141 40.8372C52.4991 40.7377 52.4872 40.661 52.4789 40.6095C52.4751 40.5858 52.4707 40.5591 52.4665 40.5366C52.4664 40.5357 52.4595 40.4969 52.4482 40.4539C52.4453 40.4431 52.436 40.4076 52.4199 40.3638C52.4127 40.344 52.3945 40.2956 52.3636 40.2375C52.348 40.2083 52.3194 40.1578 52.2757 40.1006C52.239 40.0523 52.1487 39.9416 51.995 39.8494C51.8211 39.7451 51.5237 39.6451 51.1806 39.753C50.873 39.8497 50.709 40.0595 50.6429 40.1608C50.5229 40.3448 50.4977 40.5217 50.495 40.5373C50.4794 40.6276 50.4804 40.7009 50.4804 40.708H52.4804C52.4804 40.7144 52.4814 40.7871 52.4659 40.8771C52.4633 40.8925 52.4381 41.0693 52.3182 41.2532C52.2521 41.3545 52.0881 41.5642 51.7805 41.6609C51.4374 41.7688 51.1401 41.6688 50.9662 41.5645C50.8125 41.4723 50.7223 41.3617 50.6855 41.3135C50.6419 41.2563 50.6133 41.2059 50.5978 41.1767C50.567 41.1187 50.5488 41.0705 50.5417 41.051C50.5258 41.0076 50.5167 40.9729 50.5141 40.9629C50.5072 40.937 50.5032 40.917 50.5025 40.9136C50.5011 40.9067 50.5002 40.902 50.5 40.9008C50.4995 40.8985 50.5008 40.9052 50.5044 40.928C50.5111 40.9695 50.5218 41.0383 50.5367 41.1368C50.5664 41.3325 50.6111 41.6338 50.6711 42.0415L52.6498 41.7505ZM52.4587 40.5005C52.2515 39.5238 51.791 38.6552 51.0992 37.9057L49.6296 39.2623C50.0898 39.7608 50.3734 40.3082 50.5022 40.9155L52.4587 40.5005ZM51.1257 37.9355C50.4969 37.1974 49.7727 36.6083 48.9518 36.1838L48.033 37.9602C48.6042 38.2557 49.128 38.6746 49.6032 39.2325L51.1257 37.9355ZM48.9646 36.1905C48.2429 35.8039 47.5152 35.532 46.8364 35.532V37.532C47.0216 37.532 47.3979 37.6201 48.0202 37.9535L48.9646 36.1905ZM46.8364 35.532C46.2219 35.532 45.5326 35.8324 44.8748 36.1978L45.8461 37.9462C46.1416 37.782 46.3774 37.6726 46.559 37.6061C46.6488 37.5733 46.7176 37.5538 46.7676 37.5429C46.8185 37.5319 46.8395 37.532 46.8364 37.532V35.532ZM44.9001 36.1842C44.2603 36.516 43.6826 36.8649 43.353 37.2356L44.8478 38.5644C44.8472 38.5651 44.8517 38.56 44.8632 38.5493C44.8746 38.5387 44.8911 38.5243 44.9137 38.5061C44.9596 38.4692 45.0233 38.4228 45.1086 38.3667C45.2803 38.2539 45.5149 38.1183 45.8207 37.9598L44.9001 36.1842ZM43.3196 37.2753C43.1338 37.5075 42.9763 37.8274 42.8402 38.1429C42.6939 38.4822 42.5344 38.9082 42.3621 39.4129L44.2548 40.0591C44.4184 39.5798 44.559 39.2078 44.6766 38.9351C44.7354 38.799 44.7847 38.6961 44.8246 38.6216C44.8671 38.5422 44.8867 38.5179 44.8813 38.5247L43.3196 37.2753ZM42.3574 39.4269C42.0369 40.4131 41.776 41.356 41.5762 42.2551L43.5286 42.6889C43.7128 41.86 43.956 40.9789 44.2595 40.0451L42.3574 39.4269ZM42.5524 41.472H42.1204V43.472H42.5524V41.472ZM43.0284 42.0529L42.1644 40.1809L40.3485 41.0191L41.2125 42.8911L43.0284 42.0529ZM42.1668 40.1862C41.4452 38.5987 40.853 37.3296 40.3914 36.382L38.5934 37.258C39.0438 38.1824 39.6277 39.4333 40.3461 41.0138L42.1668 40.1862ZM40.4288 36.4689C40.6042 36.9368 40.3639 37.3005 40.2483 37.4251C40.1915 37.4862 40.1413 37.5218 40.1193 37.5365C40.1064 37.545 40.0966 37.5508 40.0907 37.5541C40.0848 37.5575 40.0814 37.5592 40.0812 37.5592C40.081 37.5594 40.083 37.5584 40.0876 37.5563C40.0922 37.5543 40.0988 37.5515 40.1076 37.548C40.1254 37.5409 40.1498 37.5319 40.1817 37.5211C40.2462 37.4994 40.3319 37.4737 40.4416 37.4446C40.8903 37.3257 41.6156 37.1819 42.6411 37.015L42.3197 35.041C41.2812 35.2101 40.4765 35.3663 39.9292 35.5114C39.6663 35.5811 39.4046 35.6629 39.1961 35.7658C39.1021 35.8122 38.9313 35.9041 38.7827 36.0642C38.6183 36.2412 38.3626 36.6552 38.5561 37.1711L40.4288 36.4689ZM42.6503 37.0135C44.7515 36.6512 46.0719 36.488 46.6924 36.488V34.488C45.873 34.488 44.3854 34.6848 42.3105 35.0425L42.6503 37.0135ZM46.6924 36.488C47.3225 36.488 48.2809 36.6756 49.6162 37.1207L50.2486 35.2233C48.8479 34.7564 47.6464 34.488 46.6924 34.488V36.488ZM49.6162 37.1207C50.8886 37.5448 51.9716 38.1177 52.8786 38.8303L54.1142 37.2577C53.0052 36.3863 51.7123 35.7112 50.2486 35.2233L49.6162 37.1207ZM52.8876 38.8373C53.7389 39.4906 53.9356 40.0635 53.8718 40.5869L55.8571 40.8291C56.0332 39.3845 55.318 38.1814 54.1052 37.2507L52.8876 38.8373ZM53.8717 40.5877C53.7728 41.4035 53.6873 42.3709 53.6145 43.4869L55.6103 43.6171C55.6815 42.5251 55.764 41.5965 55.8572 40.8283L53.8717 40.5877ZM53.6146 43.4855C53.5422 44.572 53.5044 45.4263 53.5044 46.036H55.5044C55.5044 45.4937 55.5386 44.692 55.6102 43.6185L53.6146 43.4855ZM53.5044 46.036C53.5044 46.9 53.5679 47.8411 53.6918 48.8571L55.6771 48.6149C55.561 47.6629 55.5044 46.804 55.5044 46.036H53.5044ZM53.6921 48.86C53.8161 49.8518 53.9824 50.6923 54.2037 51.3562L56.1011 50.7238C55.9384 50.2357 55.7927 49.5402 55.6767 48.612L53.6921 48.86ZM54.2239 51.4114C54.5026 52.1081 55.1381 52.5873 55.8071 52.9352L56.7298 51.1608C56.1988 50.8847 56.0902 50.6919 56.0809 50.6686L54.2239 51.4114ZM46.1884 55.1C46.6123 55.1 47.0343 54.9704 47.4226 54.7978C47.8206 54.6209 48.2474 54.3697 48.698 54.0607L47.5669 52.4113C47.1774 52.6783 46.8603 52.8591 46.6103 52.9702C46.3506 53.0856 46.2205 53.1 46.1884 53.1V55.1ZM48.7137 54.0497C49.6173 53.4043 50.4421 52.6564 51.1876 51.8081L49.6853 50.4879C49.0387 51.2236 48.3275 51.8677 47.5512 52.4223L48.7137 54.0497ZM51.1764 51.8207C51.9255 50.9966 52.4933 50.1771 52.7 49.3844L50.7648 48.8796C50.6836 49.1909 50.3873 49.7154 49.6965 50.4753L51.1764 51.8207ZM52.7241 49.2606C52.894 47.9503 52.9844 46.8923 52.9844 46.108H50.9844C50.9844 46.7637 50.9069 47.7217 50.7407 49.0034L52.7241 49.2606ZM52.9844 46.108C52.9844 45.446 52.9463 44.7405 52.8715 43.9925L50.8814 44.1915C50.9506 44.8835 50.9844 45.522 50.9844 46.108H52.9844ZM52.7883 43.6816C52.5589 43.1718 52.1325 42.8199 51.691 42.572C51.2425 42.3203 50.6899 42.1256 50.067 41.9699L49.5819 43.9101C50.111 44.0424 50.4763 44.1837 50.7119 44.316C50.9543 44.4521 50.9779 44.5322 50.9645 44.5024L52.7883 43.6816ZM50.0718 41.9711C48.8942 41.6704 47.8349 41.508 46.9084 41.508V43.508C47.6139 43.508 48.4986 43.6336 49.577 43.9089L50.0718 41.9711ZM46.9084 41.508C45.9528 41.508 45.0905 42.0386 44.3423 42.7602L45.7306 44.1998C46.3263 43.6254 46.712 43.508 46.9084 43.508V41.508ZM44.3293 42.7729C43.5888 43.5135 42.9745 44.4159 42.4771 45.4629L44.2837 46.3211C44.6984 45.4481 45.1881 44.7425 45.7435 44.1871L44.3293 42.7729ZM42.4771 45.4629C41.9782 46.5134 41.6964 47.5379 41.6964 48.52H43.6964C43.6964 47.9181 43.8707 47.1906 44.2837 46.3211L42.4771 45.4629ZM41.6964 48.52C41.6964 49.4546 41.8615 50.411 42.1772 51.3845L44.0796 50.7675C43.8194 49.965 43.6964 49.2174 43.6964 48.52H41.6964ZM42.1879 51.4156C42.537 52.3825 43.0197 53.2227 43.6513 53.9117L45.1256 52.5603C44.7012 52.0973 44.3438 51.4975 44.069 50.7364L42.1879 51.4156ZM43.6664 53.9279C44.3604 54.6521 45.2071 55.1 46.1884 55.1V53.1C45.8737 53.1 45.5204 52.9719 45.1104 52.5441L43.6664 53.9279ZM72.7471 37V36H71.7471V37H72.7471ZM84.1951 37H85.1951V36H84.1951V37ZM84.1951 37.108L84.6232 38.0117L85.1951 37.7408V37.108H84.1951ZM81.5311 38.44L81.9784 39.3344L81.9882 39.3295L81.9979 39.3244L81.5311 38.44ZM79.6231 39.556L80.2113 40.3647L80.221 40.3577L80.2306 40.3504L79.6231 39.556ZM78.8311 40.312L79.5683 40.9877L79.5817 40.9731L79.5945 40.9579L78.8311 40.312ZM78.2911 41.068L79.1767 41.5325L79.1918 41.5038L79.205 41.4741L78.2911 41.068ZM76.5991 44.668L75.6658 44.309L75.6632 44.3156L75.6608 44.3223L76.5991 44.668ZM75.5191 47.8L76.4678 48.1162L76.4697 48.1104L75.5191 47.8ZM75.2671 48.556L76.2112 48.8859L76.2135 48.8791L76.2158 48.8722L75.2671 48.556ZM72.4591 58.168V59.168H73.3114L73.4465 58.3265L72.4591 58.168ZM68.4271 58.168L67.4417 58.3379L67.5848 59.168H68.4271V58.168ZM66.3751 49.78L67.3286 49.4785L67.3252 49.4679L67.3217 49.4573L66.3751 49.78ZM62.2711 41.536L62.8826 40.7447L62.8786 40.7416L62.2711 41.536ZM60.3631 40.42L59.8964 41.3044L59.9061 41.3095L59.9159 41.3144L60.3631 40.42ZM57.6991 39.088H56.6991V39.7208L57.2711 39.9917L57.6991 39.088ZM57.6991 38.98V37.98H56.6991V38.98H57.6991ZM69.1471 38.98H70.1471V37.98H69.1471V38.98ZM69.1471 39.088L69.8698 39.7792L70.1471 39.4893V39.088H69.1471ZM68.0311 40.384L67.2089 39.8148L67.1936 39.8369L67.1795 39.8599L68.0311 40.384ZM67.5271 41.536L68.4605 41.895L68.4715 41.8664L68.4807 41.8371L67.5271 41.536ZM67.3471 42.94H66.3471V42.975L66.3496 43.01L67.3471 42.94ZM67.8151 46.324L66.8435 46.5604L67.8151 46.324ZM68.4631 48.556L67.5223 48.8947L68.4631 48.556ZM68.8951 49.78L69.845 49.4672L69.8438 49.4638L68.8951 49.78ZM71.0551 55.36L70.1439 55.7719L71.1114 57.912L71.9836 55.7314L71.0551 55.36ZM72.6031 51.22L73.547 51.5504L73.5487 51.5455L72.6031 51.22ZM73.7191 47.8L72.7633 47.5059L72.7598 47.5178L73.7191 47.8ZM74.4751 44.308L75.4633 44.4613L74.4751 44.308ZM74.6911 40.96L75.6875 40.8746L75.6869 40.8675L75.6862 40.8605L74.6911 40.96ZM74.3671 39.556L73.4136 39.8571L73.4207 39.8796L73.4288 39.9017L74.3671 39.556ZM73.8271 38.404L72.9755 38.9281L72.9896 38.951L73.005 38.9732L73.8271 38.404ZM72.7471 37.108H71.7471V37.5093L72.0245 37.7992L72.7471 37.108ZM72.7471 38H84.1951V36H72.7471V38ZM83.1951 37V37.108H85.1951V37H83.1951ZM83.7671 36.2043C82.8425 36.6422 81.9415 37.0927 81.0644 37.5556L81.9979 39.3244C82.8487 38.8753 83.7238 38.4378 84.6232 38.0117L83.7671 36.2043ZM81.0839 37.5456C80.2035 37.9858 79.5 38.3913 79.0157 38.7616L80.2306 40.3504C80.5623 40.0967 81.1308 39.7582 81.9784 39.3344L81.0839 37.5456ZM79.035 38.7473C78.6924 38.9964 78.3711 39.3076 78.0678 39.6661L79.5945 40.9579C79.8192 40.6924 80.0258 40.4996 80.2113 40.3647L79.035 38.7473ZM78.094 39.6363C77.7981 39.9591 77.5366 40.3036 77.3773 40.6619L79.205 41.4741C79.2377 41.4004 79.3362 41.2409 79.5683 40.9877L78.094 39.6363ZM77.4056 40.6035C76.6295 42.0828 76.0457 43.3214 75.6658 44.309L77.5325 45.027C77.8726 44.1426 78.4168 42.9812 79.1767 41.5325L77.4056 40.6035ZM75.6608 44.3223C75.3195 45.2486 74.9554 46.3048 74.5685 47.4896L76.4697 48.1104C76.8509 46.9432 77.2068 45.9114 77.5375 45.0137L75.6608 44.3223ZM74.5705 47.4838L74.3185 48.2398L76.2158 48.8722L76.4678 48.1162L74.5705 47.4838ZM74.3231 48.2261C72.7631 52.6902 71.7993 55.9689 71.4718 58.0095L73.4465 58.3265C73.743 56.4791 74.6512 53.3498 76.2112 48.8859L74.3231 48.2261ZM72.4591 57.168H68.4271V59.168H72.4591V57.168ZM69.4126 57.9981C68.9246 55.1677 68.2297 52.3278 67.3286 49.4785L65.4217 50.0815C66.2966 52.8482 66.9697 55.6003 67.4417 58.3379L69.4126 57.9981ZM67.3217 49.4573C66.5843 47.2944 65.5934 44.9724 64.3536 42.4928L62.5647 43.3872C63.7729 45.8036 64.726 48.0416 65.4286 50.1027L67.3217 49.4573ZM64.3536 42.4928C64.014 41.8137 63.514 41.2326 62.8826 40.7447L61.6597 42.3273C62.0843 42.6554 62.3763 43.0103 62.5647 43.3872L64.3536 42.4928ZM62.8786 40.7416C62.3943 40.3713 61.6908 39.9658 60.8104 39.5256L59.9159 41.3144C60.7635 41.7382 61.332 42.0767 61.6637 42.3304L62.8786 40.7416ZM60.8299 39.5356C59.9527 39.0727 59.0518 38.6222 58.1272 38.1843L57.2711 39.9917C58.1705 40.4178 59.0455 40.8553 59.8964 41.3044L60.8299 39.5356ZM58.6991 39.088V38.98H56.6991V39.088H58.6991ZM57.6991 39.98H69.1471V37.98H57.6991V39.98ZM68.1471 38.98V39.088H70.1471V38.98H68.1471ZM68.4245 38.3968C67.8888 38.9568 67.4717 39.4353 67.2089 39.8148L68.8533 40.9532C69.0226 40.7087 69.3495 40.3232 69.8698 39.7792L68.4245 38.3968ZM67.1795 39.8599C66.9337 40.2592 66.7352 40.723 66.5736 41.2349L68.4807 41.8371C68.6071 41.437 68.7445 41.1328 68.8828 40.9081L67.1795 39.8599ZM66.5938 41.177C66.4066 41.6638 66.3471 42.2808 66.3471 42.94H68.3471C68.3471 42.3512 68.4077 42.0322 68.4605 41.895L66.5938 41.177ZM66.3496 43.01C66.4478 44.4093 66.6094 45.5979 66.8435 46.5604L68.7868 46.0876C68.5889 45.2741 68.4385 44.2067 68.3447 42.87L66.3496 43.01ZM66.8435 46.5604C67.0646 47.4695 67.2903 48.2503 67.5223 48.8947L69.404 48.2173C69.204 47.6617 68.9977 46.9545 68.7868 46.0876L66.8435 46.5604ZM67.5223 48.8947C67.7387 49.496 67.8788 49.8932 67.9465 50.0962L69.8438 49.4638C69.7675 49.2348 69.6196 48.816 69.404 48.2173L67.5223 48.8947ZM67.9453 50.0928C68.6036 52.0919 69.3362 53.9852 70.1439 55.7719L71.9664 54.9481C71.1901 53.2308 70.4827 51.4041 69.845 49.4672L67.9453 50.0928ZM71.9836 55.7314C72.5174 54.3969 73.0385 53.0032 73.547 51.5504L71.6593 50.8896C71.1598 52.3168 70.6489 53.6831 70.1267 54.9886L71.9836 55.7314ZM73.5487 51.5455C74.0543 50.0767 74.4321 48.92 74.6785 48.0822L72.7598 47.5178C72.5262 48.312 72.16 49.4353 71.6576 50.8945L73.5487 51.5455ZM74.6749 48.0941C74.9818 47.0969 75.2428 45.8822 75.4633 44.4613L73.487 44.1547C73.2755 45.5178 73.0325 46.6311 72.7634 47.5059L74.6749 48.0941ZM75.4633 44.4613C75.6846 43.0355 75.7693 41.8296 75.6875 40.8746L73.6948 41.0454C73.7569 41.7704 73.6977 42.7965 73.487 44.1547L75.4633 44.4613ZM75.6862 40.8605C75.6297 40.2957 75.5025 39.745 75.3055 39.2103L73.4288 39.9017C73.5678 40.279 73.6566 40.6643 73.6961 41.0595L75.6862 40.8605ZM75.3207 39.2549C75.154 38.7271 74.9349 38.2472 74.6493 37.8348L73.005 38.9732C73.1514 39.1848 73.2922 39.4729 73.4136 39.8571L75.3207 39.2549ZM74.6788 37.8799C74.4282 37.4727 74.0059 36.9773 73.4698 36.4168L72.0245 37.7992C72.5444 38.3427 72.8421 38.7113 72.9755 38.9281L74.6788 37.8799ZM73.7471 37.108V37H71.7471V37.108H73.7471ZM95.115 53.416L95.4996 54.3392L95.5119 54.3339L95.115 53.416ZM97.671 52.12L98.178 52.9819L98.1873 52.9765L98.1964 52.9708L97.671 52.12ZM99.399 50.824L99.8218 49.9178L99.1636 49.6106L98.6679 50.1417L99.399 50.824ZM99.9389 51.076L100.696 51.7292L101.559 50.7287L100.362 50.1698L99.9389 51.076ZM97.023 54.136L97.6987 54.8732L97.6996 54.8723L97.023 54.136ZM89.643 54.064L89.1468 54.9322L89.1549 54.9369L89.1631 54.9414L89.643 54.064ZM85.971 50.824L85.1552 51.4025L85.1603 51.4095L85.971 50.824ZM85.755 42.508L86.6595 42.9344L85.755 42.508ZM88.995 38.224L89.6469 38.9824L89.6544 38.9758L88.995 38.224ZM97.887 37.792L97.3185 38.6148L97.3255 38.6195L97.887 37.792ZM101.019 41.176L100.144 41.6604L100.151 41.6721L101.019 41.176ZM102.171 44.884L102.404 45.8564L103.171 45.6724V44.884H102.171ZM98.175 45.568L98.3148 46.5582L98.3244 46.5568L98.175 45.568ZM92.667 45.892L92.5318 46.8828L92.5376 46.8836L92.667 45.892ZM91.587 45.748L91.4226 46.7344L91.4427 46.7377L91.4629 46.7403L91.587 45.748ZM88.455 45.712L87.6867 45.0718L87.499 45.297L87.4627 45.588L88.455 45.712ZM88.923 50.104L89.8584 49.7506L88.923 50.104ZM90.579 52.84L89.8487 53.5232L89.8545 53.5293L89.8604 53.5354L90.579 52.84ZM90.759 39.376L89.9323 38.8132L89.9297 38.8171L90.759 39.376ZM88.923 43.48L87.9636 43.1978L87.8787 43.4865L87.9672 43.7741L88.923 43.48ZM90.867 44.308L91.0631 43.3274L90.867 44.308ZM96.303 44.38L96.1158 43.3977L96.1114 43.3985L96.303 44.38ZM98.463 43.768L98.9102 44.6624L98.9445 44.6453L98.9775 44.6255L98.463 43.768ZM98.499 42.724L97.5279 42.9628L97.5323 42.9808L97.5374 42.9987L98.499 42.724ZM96.735 39.124L95.9636 39.7604L95.9722 39.7709L95.9812 39.7811L96.735 39.124ZM92.991 54.956C93.736 54.956 94.5867 54.7194 95.4996 54.3391L94.7303 52.4929C93.9152 52.8326 93.3499 52.956 92.991 52.956V54.956ZM95.5119 54.3339C96.4369 53.9339 97.3257 53.4833 98.178 52.9819L97.1639 51.2581C96.3842 51.7167 95.569 52.1301 94.718 52.4981L95.5119 54.3339ZM98.1964 52.9708C99.0309 52.4554 99.7001 51.9669 100.13 51.5063L98.6679 50.1417C98.4258 50.4011 97.943 50.7766 97.1455 51.2692L98.1964 52.9708ZM98.9761 51.7302L99.5161 51.9822L100.362 50.1698L99.8218 49.9178L98.9761 51.7302ZM99.1818 50.4228C98.1431 51.6267 97.1982 52.6169 96.3463 53.3997L97.6996 54.8723C98.6237 54.0231 99.6228 52.9733 100.696 51.7292L99.1818 50.4228ZM96.3472 53.3988C95.601 54.0829 94.9671 54.324 94.431 54.324V56.324C95.6228 56.324 96.7169 55.7731 97.6987 54.8732L96.3472 53.3988ZM94.431 54.324C92.9523 54.324 91.5203 53.9509 90.1228 53.1866L89.1631 54.9414C90.8376 55.8571 92.5976 56.324 94.431 56.324V54.324ZM90.1391 53.1958C88.7397 52.3961 87.6269 51.4089 86.7816 50.2385L85.1603 51.4095C86.187 52.8311 87.5222 54.0039 89.1468 54.9322L90.1391 53.1958ZM86.7867 50.2456C85.9351 49.0447 85.567 47.9589 85.567 46.972H83.567C83.567 48.4811 84.1348 49.9633 85.1552 51.4024L86.7867 50.2456ZM85.567 46.972C85.567 45.873 85.9051 44.5347 86.6595 42.9344L84.8504 42.0816C84.0208 43.8413 83.567 45.479 83.567 46.972H85.567ZM86.6595 42.9344C87.3933 41.3777 88.3886 40.0639 89.6468 38.9823L88.3431 37.4657C86.8653 38.7361 85.7006 40.2783 84.8504 42.0816L86.6595 42.9344ZM89.6544 38.9758C90.8656 37.9133 92.1257 37.424 93.459 37.424V35.424C91.5762 35.424 89.8603 36.1347 88.3355 37.4722L89.6544 38.9758ZM93.459 37.424C94.8916 37.424 96.1686 37.8203 97.3185 38.6147L98.4554 36.9693C96.9653 35.9397 95.2903 35.424 93.459 35.424V37.424ZM97.3255 38.6195C98.5471 39.4485 99.4805 40.4616 100.144 41.6603L101.894 40.6917C101.069 39.2024 99.9148 37.9595 98.4485 36.9645L97.3255 38.6195ZM100.151 41.6721C100.863 42.9188 101.171 43.983 101.171 44.884H103.171C103.171 43.529 102.711 42.1212 101.887 40.6799L100.151 41.6721ZM101.938 43.9116C101.387 44.0437 100.1 44.2656 98.0255 44.5792L98.3244 46.5568C100.378 46.2464 101.755 46.0123 102.404 45.8564L101.938 43.9116ZM98.0352 44.5778C95.9876 44.8669 94.6625 45 93.999 45V47C94.8234 47 96.2823 46.8451 98.3147 46.5582L98.0352 44.5778ZM93.999 45C93.725 45 93.3293 44.9699 92.7963 44.9004L92.5376 46.8836C93.1086 46.9581 93.6009 47 93.999 47V45ZM92.8021 44.9012C92.2746 44.8292 91.9093 44.7805 91.711 44.7557L91.4629 46.7403C91.6486 46.7635 92.0033 46.8108 92.5318 46.8828L92.8021 44.9012ZM91.7514 44.7616C90.7294 44.5913 89.8957 44.496 89.283 44.496V46.496C89.7262 46.496 90.4286 46.5687 91.4226 46.7344L91.7514 44.7616ZM89.283 44.496C89.0207 44.496 88.7506 44.5169 88.4995 44.5824C88.2587 44.6452 87.9335 44.7757 87.6867 45.0718L89.2232 46.3522C89.158 46.4304 89.0922 46.474 89.0531 46.4954C89.0151 46.5161 88.9945 46.5202 89.0044 46.5176C89.0134 46.5153 89.04 46.5094 89.0894 46.5044C89.1381 46.4994 89.2019 46.496 89.283 46.496V44.496ZM87.4627 45.588C87.369 46.3375 87.311 46.8969 87.311 47.188H89.311C89.311 47.0471 89.3489 46.6225 89.4472 45.836L87.4627 45.588ZM87.311 47.188C87.311 48.2058 87.5503 49.3002 87.9875 50.4574L89.8584 49.7506C89.4796 48.7478 89.311 47.8982 89.311 47.188H87.311ZM87.9875 50.4574C88.4356 51.6435 89.0523 52.6718 89.8487 53.5232L91.3092 52.1568C90.7136 51.5202 90.2264 50.7245 89.8584 49.7506L87.9875 50.4574ZM89.8604 53.5354C90.7348 54.439 91.7869 54.956 92.991 54.956V52.956C92.4191 52.956 91.8631 52.729 91.2976 52.1446L89.8604 53.5354ZM93.459 36.684C91.9933 36.684 90.8201 37.5093 89.9324 38.8132L91.5856 39.9388C92.2338 38.9867 92.8606 38.684 93.459 38.684V36.684ZM89.9297 38.8171C89.115 40.026 88.4649 41.4934 87.9636 43.1978L89.8823 43.7622C90.341 42.2026 90.9149 40.934 91.5882 39.9349L89.9297 38.8171ZM87.9672 43.7741C88.0722 44.1153 88.295 44.3468 88.4784 44.4918C88.666 44.6401 88.8809 44.7523 89.0891 44.841C89.5057 45.0185 90.0451 45.1634 90.6708 45.2886L91.0631 43.3274C90.4889 43.2126 90.1042 43.0995 89.8728 43.001C89.757 42.9517 89.7169 42.9214 89.7185 42.9227C89.7215 42.925 89.7455 42.9442 89.7763 42.9841C89.808 43.0251 89.8499 43.0922 89.8787 43.1859L87.9672 43.7741ZM90.6708 45.2886C91.909 45.5362 92.9987 45.668 93.927 45.668V43.668C93.1752 43.668 92.2249 43.5598 91.0631 43.3274L90.6708 45.2886ZM93.927 45.668C94.6197 45.668 95.4833 45.5588 96.4945 45.3615L96.1114 43.3985C95.1546 43.5852 94.4342 43.668 93.927 43.668V45.668ZM96.4901 45.3623C97.5107 45.1679 98.3467 44.9441 98.9102 44.6624L98.0157 42.8736C97.7152 43.0239 97.1112 43.2081 96.1158 43.3977L96.4901 45.3623ZM98.9775 44.6255C99.4633 44.334 99.643 43.8447 99.643 43.408H97.643C97.643 43.375 97.6488 43.2862 97.7035 43.1768C97.7624 43.0591 97.8528 42.9679 97.9485 42.9105L98.9775 44.6255ZM99.643 43.408C99.643 43.1256 99.5506 42.7646 99.4605 42.4493L97.5374 42.9987C97.5818 43.154 97.611 43.2704 97.6284 43.353C97.637 43.3939 97.6414 43.4202 97.6433 43.4344C97.6457 43.4513 97.643 43.4393 97.643 43.408H99.643ZM99.47 42.4852C99.08 40.8992 98.4296 39.5461 97.4887 38.4669L95.9812 39.7811C96.6723 40.5739 97.1979 41.6208 97.5279 42.9628L99.47 42.4852ZM97.5063 38.4876C96.5003 37.2682 95.1095 36.684 93.459 36.684V38.684C94.5924 38.684 95.3856 39.0598 95.9636 39.7604L97.5063 38.4876Z" fill="white" mask="url(#path-2-outside-1_280_729)"/>
<defs>
<linearGradient id="paint0_linear_280_729" x1="58.5" y1="0" x2="58.5" y2="85" gradientUnits="userSpaceOnUse">
<stop stop-color="#4D1181"/>
<stop offset="1" stop-color="#32080B"/>
</linearGradient>
</defs>
</svg>
